<?xml version="1.0" encoding="UTF-8"?>
<svg id="Layer_2" data-name="Layer 2" xmlns="http://www.w3.org/2000/svg" viewBox="0 0 1080.74 332.76">
  <defs>
    <style>
      .cls-1 {
        fill: #ff0432;
      }
    </style>
  </defs>
  <g id="Layer_1-2" data-name="Layer 1">
    <g>
      <g>
        <path class="cls-1" d="m188.28,99.9c13.6-8.38,31.17-13,52.81-13,36.89,0,63.55,13.3,79.08,37.16,2.91,4.47,4.23,9.32,4.23,14.05,0,13.71-11.06,26.46-26.52,26.46-4.59-28.39-21.71-45.94-53.45-45.94-17.5,0-30.48,4.16-39.39,12.16-3.34-12.91-8.57-25.04-16.76-30.89Z"/>
        <path class="cls-1" d="m342.14,255.6c0,42.17-30.9,63.47-76.83,63.47-4.68,0-9.45-.37-14.24-1.13l2.41.18s-42.98-12.83-58.51-74.48c10.48,25.34,35.67,43.69,66.59,43.69,25.88,0,43-12.1,43-32.57,0-27.14-20.46-47.18-114.83-48.02,0-.06,0-.11,0-.16,0,0-.26,3.32-.56,8.83-.76,14.1-1.82,42.51.46,66.3.03-.64.05-1.26.07-1.89.34,5.54.88,10.49,1.62,14.97.14.72.25,1.44.39,2.14.19,1.04.4,2.07.63,3.07.13.61.28,1.22.42,1.8.99,3.95,2.2,7.5,3.67,10.79.01.01.02.04.02.05.22.48.43.95.66,1.42h-52.05c4.2-8.73,6.47-19.4,7.39-34.21,0-.17-.01-.37-.01-.55h0c.06-.72.12-1.45.18-2.18.01-.18.02-.35.04-.53,1.4-18.99.94-39.96.33-53.92-.19-4.37-.39-8.07-.56-10.78v-5.15h-.35c-94.08.89-114.48,20.92-114.48,48.02,0,20.47,17.11,32.57,43.01,32.57,30.19,0,54.92-17.5,65.82-41.93-15.85,60.29-58.1,72.88-58.1,72.88l.82-.06c-4.15.57-8.25.85-12.3.85-45.94,0-76.84-21.3-76.84-63.47,0-30.49,16.71-52.61,49.28-63.47,30.06-10.03,60.55-12.52,103.14-12.94v-5.01c0-35.92-16.71-55.55-54.71-55.55-24.05,0-39.71,10.08-47.88,27.33-5.36,11.32-16.68,18.61-29.21,18.61H7.52c7.09-48.86,39.26-77.67,93.53-77.67,29.47,0,51.41,8.56,66.03,23.53h0s.01.02.02.03c1.4,1.42,2.72,2.9,3.98,4.44.04-.05.09-.11.13-.16,6.02,7.44,16.64,25.51,18.51,61.7v2.75c42.6.42,73.08,2.91,103.15,12.94,32.56,10.86,49.27,32.98,49.27,63.47Z"/>
      </g>
      <g>
        <path d="m483.28,93.52h-11.99l-42.99,97.55h15.43l9.65-24.11h46.43l9.79,24.11h15.43l-41.75-97.55Zm-25.22,61.86l18.47-44.78h.27l18.19,44.78h-36.93Z"/>
        <path d="m625.27,142.36c-.69-3.44-1.95-6.52-3.79-9.23s-4.36-4.89-7.58-6.54c-3.21-1.66-7.35-2.48-12.4-2.48-3.95,0-7.85,1.01-11.71,3.03-3.86,2.02-6.84,5.05-8.96,9.09-2.11-4.04-4.82-7.07-8.13-9.09-3.3-2.02-7.39-3.03-12.26-3.03-2.94,0-5.63.43-8.06,1.3-2.44.88-4.55,1.93-6.34,3.17-1.79,1.24-3.26,2.55-4.41,3.93-1.15,1.38-1.86,2.53-2.13,3.44h-.28v-10.19h-11.57v65.31h12.4v-33.89c0-3.68.46-6.87,1.38-9.58.91-2.71,2.15-4.94,3.72-6.68,1.56-1.75,3.37-3.06,5.44-3.93,2.07-.87,4.2-1.31,6.41-1.31,3.03,0,5.44.53,7.23,1.58,1.79,1.06,3.17,2.53,4.13,4.41.97,1.89,1.61,4.12,1.93,6.69.32,2.57.48,5.42.48,8.54v34.17h12.41v-35.69c0-5.78,1.28-10.51,3.85-14.19,2.57-3.67,6.85-5.51,12.82-5.51,3.03,0,5.46.53,7.3,1.58,1.84,1.06,3.26,2.46,4.27,4.21,1.01,1.74,1.68,3.77,2,6.06.32,2.3.48,4.68.48,7.16v36.38h12.41v-38.03c0-3.67-.35-7.23-1.04-10.68Z"/>
        <path d="m691.76,185.56c-.1-1.93-.14-4.04-.14-6.34v-33.34c0-2.85-.53-5.58-1.59-8.2-1.05-2.62-2.68-4.94-4.89-6.96-2.2-2.02-5.03-3.63-8.47-4.82-3.45-1.2-7.56-1.79-12.33-1.79s-9.19.8-13.78,2.41c-4.6,1.6-8.64,4.02-12.13,7.23l7.44,7.72c1.1-.83,2.25-1.7,3.45-2.62,1.19-.92,2.52-1.72,3.99-2.41,1.47-.69,3.1-1.26,4.89-1.72,1.8-.46,3.88-.69,6.27-.69,2.67,0,4.96.39,6.89,1.17,1.93.78,3.54,1.84,4.83,3.17,1.28,1.33,2.25,2.82,2.89,4.48.64,1.65.96,3.3.96,4.96v2.75h-9.09c-4.96,0-9.62.39-13.99,1.17-4.36.78-8.17,2.07-11.43,3.86-3.26,1.79-5.84,4.11-7.72,6.96s-2.82,6.39-2.82,10.61c0,3.22.59,6.04,1.79,8.47,1.19,2.44,2.82,4.48,4.89,6.14,2.07,1.65,4.48,2.89,7.23,3.72,2.76.82,5.65,1.24,8.68,1.24,4.96,0,9.33-.88,13.09-2.62,3.77-1.75,7.03-4.73,9.79-8.96h.27c0,3.31.14,6.62.42,9.92h11.02c-.19-1.74-.32-3.58-.41-5.51Zm-11.72-21.77c0,2.2-.32,4.43-.96,6.68s-1.7,4.3-3.17,6.13c-1.47,1.84-3.4,3.34-5.79,4.48-2.39,1.15-5.28,1.72-8.68,1.72-4.32,0-7.74-.82-10.26-2.48-2.53-1.65-3.79-4.36-3.79-8.13,0-2.57.8-4.68,2.41-6.33,1.6-1.66,3.67-2.94,6.2-3.86,2.52-.92,5.33-1.54,8.4-1.86,3.08-.32,6.09-.48,9.03-.48h6.61v4.13Z"/>
        <path d="m735.02,124.11c-2.02,0-4.04.29-6.06.89-2.02.6-3.88,1.4-5.58,2.41-1.7,1.01-3.24,2.23-4.62,3.65-1.37,1.43-2.48,3.01-3.3,4.76h-.28v-10.06h-12.4v65.31h12.4v-32.79c0-7.17,1.61-12.45,4.82-15.85,3.22-3.4,7.86-5.1,13.92-5.1,1.01,0,2.02.1,3.03.28,1.01.18,2.02.41,3.03.69l.55-13.37c-1.65-.55-3.49-.82-5.51-.82Z"/>
        <path class="cls-1" d="m803.51,149.53c-2.39-3.35-5.36-6.02-8.89-7.99-3.54-1.98-7.4-3.52-11.58-4.62-4.18-1.1-8.04-2.34-11.57-3.72-3.54-1.38-6.5-3.17-8.89-5.37-2.39-2.21-3.58-5.38-3.58-9.51,0-1.47.3-3.08.89-4.82.6-1.75,1.63-3.38,3.1-4.9,1.47-1.51,3.43-2.75,5.86-3.72,2.43-.96,5.49-1.44,9.16-1.44,3.86,0,7.31.78,10.34,2.34s5.37,3.63,7.03,6.2l10.74-9.78c-3.67-4.5-7.94-7.49-12.81-8.96-4.87-1.47-9.97-2.21-15.3-2.21-5.88,0-10.91.9-15.08,2.69-4.19,1.79-7.61,4.02-10.27,6.69-2.67,2.66-4.62,5.6-5.86,8.81-1.24,3.22-1.86,6.25-1.86,9.1,0,6.34,1.2,11.37,3.59,15.09,2.38,3.72,5.35,6.68,8.88,8.88,3.54,2.21,7.4,3.93,11.58,5.17,4.18,1.24,8.04,2.53,11.57,3.86,3.54,1.33,6.5,2.99,8.89,4.96,2.39,1.98,3.58,4.85,3.58,8.61,0,2.67-.6,5.01-1.79,7.03s-2.73,3.72-4.61,5.1c-1.89,1.38-3.98,2.41-6.27,3.1-2.3.69-4.55,1.03-6.76,1.03-3.95,0-7.78-.85-11.5-2.55-3.72-1.7-6.78-4.34-9.16-7.92l-10.89,9.37c3.31,4.59,7.76,7.99,13.37,10.2,5.6,2.2,11.52,3.3,17.77,3.3,4.69,0,9.1-.69,13.23-2.06,4.13-1.38,7.72-3.36,10.75-5.93,3.03-2.57,5.44-5.74,7.23-9.51,1.79-3.76,2.69-7.99,2.69-12.67,0-5.88-1.2-10.5-3.58-13.85Z"/>
        <path class="cls-1" d="m872.54,137.82c-1.29-3.17-3.01-5.77-5.17-7.79s-4.68-3.51-7.58-4.48c-2.89-.96-5.9-1.44-9.02-1.44-5.06,0-9.51,1.08-13.37,3.23-3.86,2.16-6.57,4.99-8.13,8.48h-.27v-48.92h-12.4v104.17h12.4v-33.62c0-3.76.45-7.03,1.37-9.78.92-2.76,2.21-5.03,3.86-6.82,1.66-1.79,3.58-3.1,5.79-3.93,2.2-.83,4.59-1.24,7.16-1.24,1.93,0,3.79.3,5.59.9,1.79.59,3.37,1.56,4.75,2.89,1.38,1.33,2.48,3.08,3.31,5.23.82,2.16,1.24,4.76,1.24,7.79v38.58h12.4v-42.02c0-4.32-.65-8.06-1.93-11.23Z"/>
        <path class="cls-1" d="m939.92,185.56c-.09-1.93-.14-4.04-.14-6.34v-33.34c0-2.85-.53-5.58-1.58-8.2-1.06-2.62-2.69-4.94-4.9-6.96-2.2-2.02-5.03-3.63-8.47-4.82-3.44-1.2-7.56-1.79-12.33-1.79s-9.19.8-13.78,2.41c-4.6,1.6-8.64,4.02-12.13,7.23l7.44,7.72c1.11-.83,2.25-1.7,3.45-2.62,1.19-.92,2.52-1.72,3.99-2.41,1.47-.69,3.1-1.26,4.9-1.72,1.79-.46,3.88-.69,6.27-.69,2.66,0,4.96.39,6.88,1.17,1.93.78,3.54,1.84,4.83,3.17,1.28,1.33,2.25,2.82,2.89,4.48.64,1.65.97,3.3.97,4.96v2.75h-9.1c-4.96,0-9.62.39-13.98,1.17-4.37.78-8.18,2.07-11.44,3.86-3.26,1.79-5.84,4.11-7.72,6.96s-2.82,6.39-2.82,10.61c0,3.22.59,6.04,1.79,8.47,1.19,2.44,2.82,4.48,4.89,6.14,2.07,1.65,4.48,2.89,7.23,3.72,2.76.82,5.65,1.24,8.69,1.24,4.96,0,9.32-.88,13.09-2.62,3.76-1.75,7.02-4.73,9.78-8.96h.27c0,3.31.14,6.62.42,9.92h11.02c-.18-1.74-.32-3.58-.41-5.51Zm-11.71-21.77c0,2.2-.33,4.43-.97,6.68s-1.7,4.3-3.17,6.13c-1.47,1.84-3.4,3.34-5.79,4.48-2.39,1.15-5.28,1.72-8.68,1.72-4.31,0-7.74-.82-10.26-2.48-2.53-1.65-3.79-4.36-3.79-8.13,0-2.57.8-4.68,2.41-6.33,1.61-1.66,3.67-2.94,6.2-3.86,2.53-.92,5.33-1.54,8.41-1.86,3.07-.32,6.08-.48,9.02-.48h6.62v4.13Z"/>
        <path class="cls-1" d="m951.91,125.76v65.31h12.4v-65.31h-12.4Zm12.6-29.83c-1.79-1.79-3.92-2.69-6.4-2.69s-4.62.9-6.41,2.69c-1.79,1.79-2.69,3.92-2.69,6.4s.9,4.62,2.69,6.41,3.93,2.69,6.41,2.69,4.61-.9,6.4-2.69c1.8-1.79,2.69-3.93,2.69-6.41s-.89-4.61-2.69-6.4Z"/>
        <path class="cls-1" d="m978.09,86.9v104.17h12.4v-104.17h-12.4Z"/>
        <path d="m498.09,234.68c-1.98-3.36-4.5-6-7.58-7.93-3.08-1.93-6.47-3.28-10.19-4.06-3.72-.78-7.29-1.17-10.68-1.17h-28.11v97.55h9.09v-46.29h21.08c3.86,0,7.56-.51,11.1-1.52,3.53-1.01,6.65-2.55,9.37-4.62,2.7-2.06,4.86-4.7,6.47-7.92,1.61-3.21,2.41-7.03,2.41-11.44,0-5.05-.99-9.25-2.96-12.6Zm-7.92,20.73c-1.2,2.21-2.76,3.98-4.69,5.31-1.93,1.33-4.13,2.3-6.61,2.89-2.48.6-5.01.9-7.58.9h-20.67v-34.73h20.12c2.57,0,5.14.33,7.72.97,2.57.64,4.84,1.68,6.82,3.1,1.97,1.42,3.58,3.24,4.82,5.44,1.24,2.21,1.86,4.87,1.86,7.99s-.6,5.93-1.79,8.13Z"/>
        <path d="m542.18,253.97c-.78-.14-1.58-.21-2.41-.21-4.78,0-8.82,1.19-12.12,3.58-3.31,2.39-6.02,5.47-8.13,9.23-.19-.64-.3-2.06-.35-4.27-.05-2.2-.11-4.5-.2-6.89h-8.27c0,.83.04,2,.14,3.52.09,1.51.16,3.14.2,4.89.05,1.74.12,3.47.21,5.17.09,1.7.14,3.14.14,4.34v45.74h8.26v-34.72c0-3.12.42-6.04,1.24-8.75.83-2.71,2.09-5.07,3.79-7.1,1.7-2.02,3.86-3.6,6.48-4.75,2.62-1.15,5.72-1.72,9.3-1.72,1.01,0,2.07.18,3.17.55l.97-8.13c-.83-.18-1.64-.35-2.42-.48Z"/>
        <path d="m608.81,273.81c-1.66-4.09-3.98-7.62-6.96-10.61-2.99-2.99-6.53-5.31-10.61-6.96-4.09-1.65-8.57-2.48-13.44-2.48s-9.37.83-13.5,2.48c-4.13,1.65-7.67,3.97-10.61,6.96-2.94,2.99-5.24,6.52-6.89,10.61-1.65,4.09-2.48,8.56-2.48,13.43s.83,9.35,2.48,13.44c1.65,4.09,3.95,7.62,6.89,10.61,2.94,2.98,6.48,5.3,10.61,6.96,4.13,1.65,8.63,2.48,13.5,2.48s9.35-.83,13.44-2.48c4.08-1.66,7.62-3.98,10.61-6.96,2.98-2.99,5.3-6.52,6.96-10.61,1.65-4.09,2.48-8.57,2.48-13.44s-.83-9.34-2.48-13.43Zm-7.51,23.56c-1.15,3.17-2.83,5.92-5.03,8.27-2.21,2.34-4.87,4.2-7.99,5.58-3.13,1.38-6.62,2.06-10.48,2.06s-7.35-.68-10.47-2.06c-3.12-1.38-5.79-3.24-7.99-5.58-2.21-2.35-3.88-5.1-5.03-8.27-1.15-3.17-1.72-6.54-1.72-10.13s.57-6.96,1.72-10.13c1.15-3.16,2.82-5.92,5.03-8.26,2.2-2.34,4.87-4.21,7.99-5.58,3.12-1.38,6.61-2.07,10.47-2.07s7.35.69,10.48,2.07c3.12,1.37,5.78,3.24,7.99,5.58,2.2,2.34,3.88,5.1,5.03,8.26,1.14,3.17,1.72,6.55,1.72,10.13s-.58,6.96-1.72,10.13Z"/>
        <path d="m678.53,214.9v51.67h-.28c-1.28-2.2-2.89-4.11-4.82-5.71-1.93-1.61-4.02-2.94-6.27-4s-4.62-1.84-7.1-2.34c-2.48-.51-4.91-.76-7.3-.76-4.87,0-9.37.83-13.5,2.48-4.14,1.65-7.67,3.97-10.61,6.96-2.94,2.99-5.24,6.52-6.89,10.61-1.66,4.09-2.48,8.56-2.48,13.43s.82,9.35,2.48,13.44c1.65,4.09,3.95,7.62,6.89,10.61,2.94,2.98,6.47,5.3,10.61,6.96,4.13,1.65,8.63,2.48,13.5,2.48,2.39,0,4.82-.26,7.3-.76,2.48-.51,4.85-1.29,7.1-2.35,2.25-1.05,4.34-2.38,6.27-3.99,1.93-1.61,3.54-3.51,4.82-5.72h.28v11.16h8.27v-104.17h-8.27Zm-1.24,82.47c-1.38,3.17-3.26,5.92-5.65,8.27-2.39,2.34-5.19,4.2-8.41,5.58-3.21,1.38-6.7,2.06-10.47,2.06s-7.35-.68-10.47-2.06c-3.12-1.38-5.79-3.24-7.99-5.58-2.21-2.35-3.88-5.1-5.03-8.27-1.15-3.17-1.72-6.54-1.72-10.13s.57-6.96,1.72-10.13c1.15-3.16,2.82-5.92,5.03-8.26,2.2-2.34,4.87-4.21,7.99-5.58,3.12-1.38,6.61-2.07,10.47-2.07s7.26.69,10.47,2.07c3.22,1.37,6.02,3.24,8.41,5.58,2.39,2.34,4.27,5.1,5.65,8.26,1.38,3.17,2.06,6.55,2.06,10.13s-.68,6.96-2.06,10.13Z"/>
        <path d="m754.59,315.56c-.09-1.52-.16-3.15-.21-4.89-.04-1.75-.11-3.47-.2-5.17-.1-1.7-.14-3.14-.14-4.34v-45.75h-8.27v31.83c0,4.41-.57,8.25-1.72,11.51-1.15,3.26-2.71,5.97-4.69,8.13-1.97,2.16-4.32,3.77-7.02,4.82-2.71,1.06-5.58,1.58-8.62,1.58-3.3,0-5.99-.57-8.06-1.72-2.06-1.14-3.67-2.68-4.82-4.61-1.15-1.93-1.95-4.11-2.41-6.55-.46-2.43-.69-4.94-.69-7.51v-37.48h-8.27v37.9c0,3.49.32,6.88.97,10.19.64,3.31,1.86,6.23,3.65,8.75,1.79,2.53,4.27,4.57,7.44,6.13,3.17,1.57,7.23,2.35,12.19,2.35s9.65-1.27,13.51-3.79c3.86-2.53,6.61-5.54,8.26-9.03h.42c.18.64.3,2.07.34,4.27.05,2.21.12,4.51.21,6.89h8.27c0-.82-.05-2-.14-3.51Z"/>
        <path d="m809.36,310.87c-2.89,1.61-6.09,2.41-9.58,2.41-3.85,0-7.35-.68-10.47-2.06-3.12-1.38-5.78-3.24-7.99-5.58-2.2-2.35-3.88-5.1-5.03-8.27-1.15-3.17-1.72-6.54-1.72-10.13s.57-6.96,1.72-10.13c1.15-3.16,2.83-5.92,5.03-8.26,2.21-2.34,4.87-4.21,7.99-5.58,3.12-1.38,6.62-2.07,10.47-2.07,3.31,0,6.39.76,9.24,2.27,2.84,1.52,5.46,3.61,7.85,6.27l6.61-4.96c-.61-.68-1.23-1.33-1.87-1.93-.47-.47-.94-.91-1.43-1.32-2.27-1.98-4.72-3.6-7.37-4.88-4-1.93-8.34-2.89-13.03-2.89s-9.36.83-13.5,2.48c-4.13,1.65-7.67,3.97-10.61,6.96-2.94,2.99-5.24,6.52-6.89,10.61-1.65,4.09-2.48,8.56-2.48,13.43s.83,9.35,2.48,13.44c1.65,4.09,3.95,7.62,6.89,10.61,2.94,2.98,6.48,5.3,10.61,6.96,4.14,1.65,8.63,2.48,13.5,2.48,4.6,0,8.87-.9,12.82-2.69s7.49-4.57,10.61-8.34l-6.34-5.23c-2.11,2.66-4.61,4.8-7.51,6.4Z"/>
        <path d="m860.41,311.08c-1.47.64-3.01,1.17-4.61,1.59-1.61.41-3.2.61-4.76.61-2.75,0-4.91-.77-6.47-2.34-1.57-1.56-2.35-3.76-2.35-6.61v-41.48h18.19v-7.44h-18.19v-18.32h-8.26v18.32h-13.78v7.44h13.78v41.48c0,2.3.29,4.43.89,6.41.6,1.97,1.54,3.7,2.83,5.16,1.28,1.47,2.98,2.64,5.09,3.52,2.12.87,4.64,1.31,7.58,1.31,1.56,0,3.36-.23,5.38-.69s3.81-.97,5.37-1.52l-.69-7.44Z"/>
        <path d="m869.78,255.41v63.66h8.27v-63.66h-8.27Zm8.55-29.62c-1.2-1.19-2.67-1.79-4.41-1.79s-3.22.6-4.41,1.79c-1.2,1.19-1.79,2.66-1.79,4.41s.59,3.21,1.79,4.41,2.66,1.79,4.41,1.79,3.21-.6,4.41-1.79c1.19-1.2,1.79-2.67,1.79-4.41s-.6-3.22-1.79-4.41Z"/>
        <path d="m955.49,273.81c-1.65-4.09-3.98-7.62-6.96-10.61-2.99-2.99-6.52-5.31-10.61-6.96-4.09-1.65-8.57-2.48-13.43-2.48s-9.37.83-13.51,2.48c-4.13,1.65-7.67,3.97-10.61,6.96-2.94,2.99-5.23,6.52-6.89,10.61-1.65,4.09-2.48,8.56-2.48,13.43s.83,9.35,2.48,13.44c1.66,4.09,3.95,7.62,6.89,10.61,2.94,2.98,6.48,5.3,10.61,6.96,4.14,1.65,8.64,2.48,13.51,2.48s9.34-.83,13.43-2.48c4.09-1.66,7.62-3.98,10.61-6.96,2.98-2.99,5.31-6.52,6.96-10.61,1.65-4.09,2.48-8.57,2.48-13.44s-.83-9.34-2.48-13.43Zm-7.51,23.56c-1.15,3.17-2.83,5.92-5.03,8.27-2.2,2.34-4.87,4.2-7.99,5.58-3.13,1.38-6.62,2.06-10.47,2.06s-7.35-.68-10.48-2.06c-3.12-1.38-5.78-3.24-7.99-5.58-2.2-2.35-3.88-5.1-5.03-8.27-1.15-3.17-1.72-6.54-1.72-10.13s.57-6.96,1.72-10.13c1.15-3.16,2.83-5.92,5.03-8.26,2.21-2.34,4.87-4.21,7.99-5.58,3.13-1.38,6.62-2.07,10.48-2.07s7.34.69,10.47,2.07c3.12,1.37,5.79,3.24,7.99,5.58,2.2,2.34,3.88,5.1,5.03,8.26,1.15,3.17,1.72,6.55,1.72,10.13s-.57,6.96-1.72,10.13Z"/>
        <path d="m1023.08,270.98c-.69-3.3-1.93-6.22-3.73-8.75-1.79-2.52-4.25-4.56-7.37-6.13-3.12-1.56-7.16-2.34-12.12-2.34s-9.65,1.26-13.51,3.79c-3.85,2.53-6.61,5.53-8.26,9.02h-.42c-.18-.64-.3-2.06-.34-4.27-.05-2.2-.12-4.5-.21-6.89h-8.27c0,.83.05,2,.14,3.52.09,1.51.16,3.14.21,4.89.04,1.74.11,3.47.21,5.17.09,1.7.13,3.14.13,4.34v45.74h8.27v-31.83c0-4.41.57-8.24,1.72-11.5,1.15-3.26,2.71-5.97,4.69-8.13,1.97-2.16,4.31-3.77,7.03-4.83,2.7-1.05,5.58-1.58,8.61-1.58,3.3,0,5.99.58,8.06,1.72,2.06,1.15,3.67,2.69,4.82,4.62,1.15,1.93,1.95,4.11,2.41,6.54.46,2.44.69,4.94.69,7.51v37.48h8.27v-37.89c0-3.49-.35-6.89-1.03-10.2Z"/>
        <path d="m1077.92,291.03c-1.89-2.34-4.21-4.13-6.96-5.37-2.76-1.24-5.79-2.14-9.1-2.69-3.3-.55-6.34-1.21-9.09-2-2.76-.78-5.08-1.86-6.96-3.23-1.88-1.38-2.82-3.49-2.82-6.34,0-1.66.43-3.12,1.31-4.41.87-1.29,1.95-2.35,3.23-3.17,1.29-.83,2.74-1.47,4.34-1.93,1.61-.46,3.15-.69,4.62-.69,3.77,0,6.82.76,9.16,2.27,2.35,1.52,4.3,3.75,5.86,6.69l7.44-4.41c-2.11-4.14-5.08-7.17-8.89-9.1-3.81-1.93-8.33-2.89-13.57-2.89-2.67,0-5.28.37-7.85,1.1-2.58.74-4.9,1.86-6.96,3.38-2.07,1.51-3.75,3.42-5.03,5.72-1.29,2.29-1.93,5-1.93,8.13,0,4.04.94,7.16,2.82,9.36,1.89,2.21,4.21,3.93,6.96,5.17,2.76,1.24,5.79,2.16,9.1,2.76,3.3.6,6.33,1.31,9.09,2.13,2.76.83,5.08,1.98,6.96,3.45,1.88,1.47,2.82,3.67,2.82,6.61,0,1.84-.43,3.47-1.31,4.89-.87,1.43-1.99,2.65-3.37,3.66-1.38,1.01-2.94,1.79-4.69,2.34-1.74.55-3.49.82-5.23.82-3.77,0-7.35-.89-10.75-2.68s-5.97-4.39-7.72-7.79l-7.3,4.96c2.48,4.41,6,7.68,10.54,9.79,4.55,2.11,9.58,3.17,15.09,3.17,3.03,0,5.92-.42,8.68-1.24,2.76-.83,5.21-2.07,7.37-3.72,2.16-1.66,3.86-3.7,5.1-6.14,1.24-2.43,1.86-5.3,1.86-8.61,0-4.32-.94-7.65-2.82-9.99Z"/>
      </g>
      <rect x="383.96" y="91.29" width="5" height="241.47"/>
    </g>
    <g id="QEXwH5">
      <g>
        <path d="m208.27,44.94c-.06.27-.09.54-.13.81-.02.19-.02.4-.08.58-.04.11-.11.19-.11.32-.04.6-.09,1.2-.17,1.8-.02.18-.24.32-.09.55,0,.03-.06.1-.1.16-.02,0-.04,0-.06,0,.02-.27.01-.54.06-.8.13-.71.31-1.4.27-2.13-.01-.07,0-.14.01-.21.01-.14.03-.27.04-.41h-.05c-.01.11-.03.21-.04.32-.04-.24-.03-.47-.01-.7.03-.25.16-.5.11-.72-.06-.24-.01-.44,0-.65.02-.47.01-.94-.01-1.41-.02-.73-.05-1.45-.07-2.18,0-.15.02-.3.03-.5-.06.07-.08.1-.13.17,0-.24.06-.45.03-.64-.11-.84-.24-1.69-.39-2.52-.08-.45-.25-.87-.33-1.32-.07-.4-.2-.79-.21-1.22-.01-.59-.25-1.17-.41-1.75-.09-.34-.22-.66-.33-.99-.02-.06.01-.14.01-.22.21.12.09.49.43.48-.2-.59-.39-1.17-.58-1.73-.3.08-.1.23-.05.36.02.07.08.13.1.2.03.07.04.15.06.22-.02.01-.03.01-.05.01-.04-.08-.08-.17-.13-.28-.02.07-.03.11-.05.18-.47-1.22-.94-2.41-1.4-3.59.01-.01.03-.02.04-.03.05.04.11.07.21.14-.18-.29-.3-.53-.3-.82.05.13.1.26.16.39.02-.01.04-.02.05-.03-.02-.06-.02-.13-.06-.19-.39-.77-.8-1.53-1.19-2.3-.3-.59-.58-1.18-.87-1.76-.02-.04-.02-.09-.03-.16.07.08.12.12.16.17.01-.01.02-.01.03-.02-.06-.11-.12-.22-.18-.34.08-.02.14-.04.2-.06.01-.02.01-.04.02-.05-.07-.03-.15-.1-.2-.08-.07.04-.12.13-.2.21-.18-.19-.32-.41-.28-.71.02-.12,0-.2-.12-.26-.08-.05-.14-.14-.21-.22-.23-.26-.22-.68-.56-.86-.02-.01-.03-.04-.03-.06-.04-.38-.32-.62-.53-.9-.26-.35-.56-.69-.83-1.04-.07-.09-.07-.24-.15-.32-.84-.93-1.69-1.86-2.55-2.78-.32-.34-.67-.66-1-1h.09c.01-.06.05-.15.02-.18-.13-.11-.21-.32-.45-.25-.02,0-.08-.03-.08-.04.01-.25-.41-.22-.33-.52,0-.01-.05-.06-.07-.06-.23.03-.27-.16-.36-.29-.04-.06-.05-.13-.1-.16-.13-.09-.29-.15-.41-.25-.15-.12-.28-.24-.49-.29-.2-.06-.45-.18-.55-.35-.08-.15-.16-.24-.28-.34-.22-.19-.49-.35-.64-.59-.14-.22-.32-.34-.51-.47-.06-.04-.12-.09-.18-.13.01-.02.02-.03.03-.05.07.03.14.05.24.08-.22-.33-.46-.55-.84-.6-.07-.01-.14-.1-.21-.15.01-.01.02-.03.03-.04.09.05.18.09.27.14,0-.01,0-.02.02-.03-.11-.1-.21-.19-.32-.29.02,0,.03-.03.04-.04.19.11.38.23.62.38-.3-.27-.52-.53-.79-.71-.37-.24-.79-.38-1.12-.69-.13-.12-.32-.17-.48-.26-.23-.11-.38-.34-.57-.46-.62-.4-1.3-.68-1.92-1.08-.27-.17-.55-.28-.83-.4-.25-.11-.46-.29-.7-.4-.46-.21-.88-.5-1.38-.61-.09,0-.16-.09-.24-.14-.03-.03-.1-.06-.11-.05-.14.15-.23,0-.33-.06-1.26-.5-2.53-.97-3.86-1.23-.04,0-.08-.04-.12-.06,1.01.08,1.97.4,2.94.69.01-.02.02-.03.02-.05-.13-.1-.27-.19-.4-.28,1.15.19,2.27.47,3.34.91.82.33,1.61.72,2.39,1.13,1.97,1.01,3.94,2,5.86,3.1,1.24.7,2.37,1.59,3.45,2.53.04.04.09.07.13.1.01-.02.03-.04.05-.06-.74-.59-1.47-1.18-2.22-1.78.09-.06.14-.1.18-.13-.3-.32-.6-.63-.89-.94-.08-.08-.16-.18-.26-.23-.97-.55-1.69-1.45-2.71-1.94-.12-.28-.4-.35-.63-.49-.47-.29-.95-.57-1.43-.86-.86-.51-1.76-.93-2.62-1.42-.39-.22-.82-.38-1.23-.56-.38-.15-.77-.27-1.14-.43-1.19-.52-2.44-.81-3.68-1.15-.57-.15-1.16-.22-1.75-.32-.35-.06-.71-.13-1.06-.15-.37-.01-.75.09-1.11.04-.47-.07-.93-.01-1.39.01-.6.03-1.2.12-1.8.07-.88-.06-1.69.25-2.54.35.07.06.13.11.22.19-.26.01-.47.02-.68.05-.12.02-.23.12-.35.14-.41.04-.82.07-1.23.11-.09.01-.22,0-.26.06-.16.23-.31.08-.46.01-.03-.01-.06-.08-.09-.08-.26.01-.53-.02-.78.05-.45.12-.86-.04-1.29-.1.31-.04.61-.07.92-.11.01.02.01.03.01.05-.1.02-.2.05-.3.07t.01.02c1-.07,2-.13,3.01-.19,0-.02-.01-.03-.01-.05l-1.5-.18s0,.03-.01.04c.09.01.17.02.25.03-.08.07-.16.11-.25.12-.29.01-.58.02-.88.02-.04,0-.1,0-.13-.02-.22-.16-.46-.09-.7-.07-.07,0-.14,0-.21,0q.54-.13.6-.22h-1.54v.05c.07.01.15.02.28.04-.17.03-.28.05-.38.06-.49,0-.97.28-1.46-.02-.11-.07-.32.03-.47.07-.2.04-.39.13-.59.14-1.4.13-2.79.32-4.14.76-.04.01-.09.03-.13.02-.26-.06-.54.09-.58.33-.11.04-.33-.01-.25.21-.15.08-.3.16-.44.25.22-.04.38-.06.53-.08-.13.12-.26.27-.53.08-.03.01-.07.03-.1.05,0,.03,0,.06.02.09.14.03.29.11.42.08.24-.06.46-.18.68-.28l-.02-.02.15-.15c.11.2.27-.01.42.11-.27.1-.55.2-.86.31.07.01.11.03.15.02.32-.07.64-.16.96-.24.4-.1.79-.2,1.18-.29.84-.21,1.13-.25,1.59-.14.12.02.25.06.4.11-.24.03-.48.07-.72.1.19.05.41.11.56.04.33-.15.66-.28,1.02-.33.1-.01.2-.05.3-.08v-.04c-.06,0-.11-.02-.23-.04.76-.1,1.44-.19,2.13-.29,0,.02,0,.03.01.05-.08.02-.16.04-.23.06v.05c.22-.01.45-.03.67-.05-.01-.02-.01-.05-.01-.07-.1.02-.2.04-.35.07.33-.25.51-.26.8-.04-.36.08-.67.17-.98.22-.32.04-.65.03-.99.04.04.09.06.12.08.16-.2.02-.39.03-.57.05,0,.02,0,.05.01.07h.23c-.11.08-.22.12-.34.14-.31.05-.63.08-.94.13-.25.05-.49.14-.74.19-.7.15-1.39.29-2.08.43-.09.02-.19.05-.28.07.34-.15.68-.27,1.04-.35.35-.09.71-.14,1.07-.21,0-.02,0-.04,0-.07-.4.09-.81.17-1.21.25-.09.01-.21.03-.25-.01-.18-.18-.35-.05-.45.05-.19.16-.4.18-.62.22,0,0-.02.01-.05.03.06.01.11.02.13.03-.26.14-.54.31-.83.44-.26.12-.54.2-.81.3-.08.04-.16.1-.28.17.12.01.19.02.26.02v.04c-.28.05-.56.1-.84.15,0-.01,0-.03-.01-.04.07-.03.13-.06.2-.09,0-.02-.02-.04-.03-.06-.16.06-.33.12-.49.19-.1.04-.2.13-.29.12-.19-.01-.36.17-.55.07-.02-.01-.07.04-.09.06-.24.27-.53.4-.89.41-.09.01-.19.04-.26.09-.24.16-.46.33-.68.5-.04.03-.08.07-.12.1.01.02.02.04.02.06.13-.02.26-.04.44-.07-.1-.03-.14-.05-.17-.06.31-.14.65-.25.93-.44.23-.15.42-.09.57.04.15.11.27.07.41.06.19-.01.37-.05.56-.07.15-.02.3-.03.44-.04.02,0,.03-.03.06-.06-.08-.01-.14-.03-.21-.04v-.04c.15-.02.29-.05.44-.07,0-.03-.01-.05-.01-.08-.28.05-.56.11-.85.16,0-.03,0-.05,0-.08.37-.06.73-.13,1.1-.19l.03.06c-.05.06-.1.12-.14.18.04,0,.07.03.09.04-.01.02-.02.05-.03.07-.36.09-.72.18-1.08.26.01.02.01.03.01.04h.23c-.27.15-.5.29-.74.42.09,0,.17-.03.25-.06.32-.15.65-.31.97-.46.15-.06.29-.07.34.09.15-.02.28-.03.45-.05-.34.16-.62.3-.91.44-.1.04-.2.09-.3.12-.2.05-.41.07-.62.12-.26.07-.51.17-.77.25-.02.01-.05,0-.07,0,.02-.04.03-.06.04-.09-.09,0-.18-.02-.26,0-.15.04-.39.06-.43.16-.12.27-.31.21-.51.24-.27.03-.52.1-.78.16-.03,0-.03.06-.06.08-.09.06-.19.12-.29.17,0,0-.01-.01-.01-.02.04-.04.07-.08.09-.11-.27.07-.55.17-.84.18-.27,0-.45.11-.62.29.22-.06.44-.13.66-.19l.03.12c-.26.05-.51.09-.77.14-.36.04-.68.2-.99.38-.2.11-.42.2-.63.3-.01-.02-.01-.03-.02-.05.06-.06.12-.12.19-.18-.01-.01-.02-.03-.02-.04-.15.03-.29.07-.44.1.02.02.04.04.05.06-.01.06.01.15-.03.18-.08.08-.17.14-.27.2-.24.38-.86.37-.92.97.17.18-.03.33-.18.48.07.05.11.08.19.15.67-.44,1.35-.88,2.04-1.33.2-.13.4-.27.6-.41-.12.26-.32.43-.6.47-.07.05-.13.1-.2.15.01.02.03.03.04.05.09-.03.19-.06.35-.1-.06.09-.08.15-.12.16-.26.1-.37.46-.72.43-.02-.01-.04.01-.06.03-.19.17-.38.35-.59.5-.11.08-.17.15-.18.29,0,.16-.04.29-.26.33-.16.03-.3.17-.45.26.02.02.03.05.05.07.17-.1.35-.2.55-.32-.12.35-.4.49-.64.67-.08.05-.12.14-.18.21-.08.04-.23.07-.24.13-.04.2-.17.15-.3.15-.09,0-.19.03-.29.05,0,0,0,.03.02.05.03,0,.07.01.13.01-.05.04-.08.07-.11.09-.46.33-.84.77-1.48.8-.02-.03-.05-.12-.08-.2-.05.02-.12.04-.25.08.06-.09.09-.14.13-.21-.16.01-.3.02-.45.04.2.42-.36,1.36-.83,1.46-.16.56-.58,1.1-.77.94-.2.06-.38.08-.5.17-.15.12-.23.31-.36.45-.07.07-.18.1-.32.17.32-.42.59-.78.87-1.14.12-.15.26-.27.38-.41.03-.04.04-.09.08-.18-.49.21-.57.79-1.07.95-.01-.1-.03-.19-.01-.26.03-.07.1-.12.16-.19-.05-.02-.08-.04-.08-.04-.3.3-.59.6-.88.9,0,0,.01.02.01.02.21-.16.42-.33.62-.5.02.02.04.05.06.07-.36.59-.9,1.01-1.48,1.39.03-.04.05-.07.06-.11-.17.11-.32.22-.49.33-.01,0-.02-.01-.03-.02.14-.18.28-.37.42-.55.02,0,.05,0,.08.01,0,.08.01.14.02.22h0s.01,0,.01,0c.09-.14.19-.27.29-.41-.02-.01-.04-.03-.06-.05-.21.12-.43.23-.64.35-.01-.01-.02-.02-.02-.03.09-.1.18-.21.27-.31-.02-.01-.03-.01-.04-.02-.19.13-.37.25-.56.38-.02-.01-.03-.03-.04-.05.03-.06.05-.13.08-.19-.09.01-.13.07-.19.11-.16.12-.31.28-.49.34-.16.06-.25.11-.3.27-.01.05-.07.09-.12.14-.04-.07-.06-.12-.08-.16-.24.22-.46.42-.72.65h.18l.03.06c-.15.12-.3.24-.51.41.27-.09.32.06.35.21.06-.03.13-.05.25-.1-.11.16-.19.27-.26.37.02.01.03.02.05.03.09-.12.19-.25.31-.41-.04-.15.06-.38.32-.6.13.19.18.02.24-.06.07-.1.33-.21.44-.18-.14.24-.16.24-.42.45-.18.14-.31.33-.47.49-.22.24-.21.31.15.45.21-.23.43-.48.65-.73.06-.07.12-.14.18-.21.03-.03.07-.07.09-.07.3.1.32-.11.35-.31.01-.06.05-.11.08-.17.05.06.09.11.13.16.1-.08.17-.15.28-.24-.05.19-.09.34-.13.48.22-.29.46-.54.89-.65-.21.24-.38.44-.57.66h.14c-.12.18-.22.35-.34.53.08.01.13.02.15.02-.17.22-.34.42-.5.64-.03.05.02.14.03.26-.06.09-.15.24-.26.38-.05.07-.14.16-.22.15-.19,0-.24.13-.28.22.07.05.18.09.18.12-.02.15-.04.32-.13.43-.05.06-.23.03-.39.05,0,0-.03.03-.05.06-.16.22-.31.43-.59.53-.16.06-.38.23-.38.35,0,.24-.19.27-.29.46.01-.1.01-.14.01-.19-.16.17-.31.33-.45.49-.02-.01-.04-.03-.06-.04.15-.29.31-.58.48-.93.04.12.05.16.08.24.16-.26.37-.45.44-.71-.02-.01-.04-.03-.06-.04-.07.06-.13.12-.2.18-.02-.01-.03-.02-.05-.03.08-.16.17-.33.27-.52-.21.13-.38.27-.58.06-.27.28-.44.65-.85.78.02-.08.04-.15.07-.27-.16.17-.28.3-.35.39.06.07.11.13.14.18.1-.05.21-.1.35-.18-.04.1-.07.16-.09.22.06-.02.09-.03.13-.05.05-.32.25-.5.58-.56-.19.18-.39.37-.58.56-.05.04-.11.09-.16.14-.07.08-.16.15-.21.24-.04.09-.05.2-.08.3.04-.02.09-.04.14-.06,0,.01.01.02.02.03-.2.24-.4.48-.59.71.01.02.03.03.05.04.09-.11.18-.23.27-.34.01.01.02.02.03.03-.06.18-.13.36-.22.6q.41-.32.5-.26c-.11.08-.21.16-.36.27.13-.01.2-.02.29-.02-.04.09-.07.15-.11.25.11-.08.19-.13.26-.18-.11.24-.07.56-.39.7.03-.07.06-.12.08-.16-.07,0-.15-.03-.18,0-.14.15-.28.31-.41.48-.06.08-.1.17-.16.25-.15.25-.31.49-.45.74-.07.13-.09.29-.13.44h.07c-.03.17-.09.34-.08.51.03.32-.17.53-.3.78-.28-.21-.41.07-.59.16.01-.16.03-.31.04-.46h-.07c-.03.13-.07.27-.09.38-.09,0-.17-.01-.19.02-.12.19.02.32.17.49.03-.07.07-.14.1-.2.03,0,.06.01.09.02-.4.45.02.74.16,1.09.03-.13.06-.25.09-.4.04.12.06.18.08.25.06-.03.13-.05.19-.09.05-.03.1-.08.16-.13-.02.15-.04.27-.07.46.11-.08.16-.12.2-.16.04-.05.08-.1.13-.16.08.39.03.63-.14.64-.02-.04-.05-.09-.08-.15-.03.01-.05.02-.08.03-.01.13-.04.26-.03.39,0,.02.14.03.21.04-.03.15-.06.31-.09.47.01,0,.02,0,.03.01.04-.07.08-.13.11-.2.01,0,.02.01.03.01-.02.1-.04.2-.06.28.32.13.62.17.7-.32.03.02.06.04.08.06.03.13.05.26.08.4.05-.04.1-.07.17-.11-.08.23-.15.43-.21.63.02.01.05.02.08.03.05-.17.11-.33.17-.49.02,0,.04.01.06.01-.14.36-.15.73-.06,1.13.09-.07.15-.12.21-.17,0,.06-.01.1-.01.16.09-.02.17-.05.3-.09-.07.17-.13.29-.16.42-.02.08.01.17.02.26.08-.02.2,0,.25-.05.11-.13.2-.29.28-.45.05-.09.06-.21.09-.31.03,0,.05.01.07.01-.02.1-.03.21-.07.3-.07.18-.17.34-.23.51-.11.32-.35.54-.6.73-.22.17-.37.1-.38-.18,0-.18.02-.37.04-.56.02-.1.03-.21.05-.32-.03,0-.06-.01-.09-.01-.05.26-.1.52-.16.78-.07.27-.15.54-.23.81-.05.15-.09.29-.14.44-.05.13-.11.27-.15.4-.04.14-.05.29-.09.43-.14.51-.31,1.02-.41,1.53-.19.99-.35,1.98-.52,2.97-.01.05-.03.12-.07.14-.3.16-.41.46-.29.76.03-.1.07-.21.1-.32.03.01.06.01.08.02v.62c.06-.16.1-.26.14-.36h.06s.03.11.04.17c0,.07-.03.2-.01.22.26.12.13.32.1.47-.11.52-.25,1.04-.35,1.56-.04.19-.01.4-.01.6.02,0,.04,0,.06-.01.01-.17,0-.36.05-.53.18-.62.38-1.23.58-1.85.03-.09.15-.17.15-.25-.06-.5.12-.94.35-1.37q.18.31.12.64c-.09.43-.17.87-.24,1.31-.05.34-.07.68-.11,1.01.03.01.05.01.07.02.1-.44.19-.87.29-1.3.03-.16.02-.37.26-.39.04-.01.08-.06.09-.1.1-.26.34-.47.24-.78,0-.03.03-.09.06-.12.14-.2.29-.39.45-.57.07-.09.18-.14.32-.23-.01.89-.01,1.71.14,2.52h.07c.04-.05.07-.1.14-.19.02.13.02.21.04.29.02.05.05.11.09.12.04,0,.1-.04.13-.07.04-.07.07-.14.1-.21.06-.17.12-.33.18-.49.02,0,.03.01.05.01v2.01c.09-.04.18-.09.26-.13.07-.05.1-.15.16-.23.33-.41.28-.85.08-1.3-.03-.07-.06-.14-.08-.22-.09-.33-.17-.65.07-.96.06-.08.1-.19.12-.3.23-.94.46-1.88.69-2.82.08-.32.15-.63.22-.94.01-.02,0-.05,0-.07-.03.02-.07.04-.12.08.23-.91.45-1.8.67-2.69.13.02.22.04.32.05.04-.11.09-.21.13-.33.15.19.25.11.34-.02-.09-.06-.24-.12-.24-.18,0-.11.06-.24.12-.35.08-.12.27-.24.26-.34-.04-.32.16-.52.31-.75.08-.13.16-.27.22-.42.05-.11.07-.23.11-.34.02,0,.05,0,.07.02-.01.11-.01.21-.02.32.02.01.03.01.05.02.05-.09.09-.19.12-.25.08.06.15.1.2.14-.08.29-.16.57-.25.85-.14.46-.45.86-.4,1.38.01.04-.03.09-.05.13-.08-.03-.15-.06-.19-.08-.02.14.01.29-.05.33-.19.15-.38.29-.47.44.01.13.04.21.02.26-.09.17-.21.31-.19.55.02.22-.1.46-.16.69.02,0,.05.01.07.02.03-.07.06-.14.09-.22.17.2.22-.05.33-.09.01.07.01.14.02.25q.1-.44.64-.78c-.01.12-.02.24-.04.35-.01.12-.04.25-.05.37,0,.1,0,.21.01.31.09,0,.18,0,.28-.02-.05.14-.1.28-.15.41.07-.03.11-.08.13-.14.11-.41.53-.55.75-.88.03.17.05.33.01.48-.08.29-.19.58-.3.86-.05.15-.01.25.11.35,0-.14.02-.25.03-.37.02.01.05.01.07.01.01.07.02.14.03.21.02,0,.04.01.06.01.18-.94.29-1.91,1.03-2.62,0,.13-.05.23-.11.33-.01.01-.07-.02-.13-.04-.02.16-.05.31-.07.47.02,0,.04.01.06.01.03-.07.05-.16.1-.21.25-.21.39-.49.47-.8,0-.04.03-.07.05-.1.1-.11.2-.2.28-.31.1-.13.17-.27.27-.44.02.11.03.17.06.3.49-.66.96-1.29,1.43-1.91,0,.1-.03.17-.07.25-.15.3-.31.6-.44.9-.08.17-.09.35.1.52.13-.28.23-.53.36-.76.17-.31.36-.61.53-.92.23-.39.45-.8.69-1.19.3-.5.62-.99.93-1.49.11-.19.22-.39.34-.58.14-.25.29-.5.43-.75.03.01.06.03.09.04-.1.22-.2.43-.32.68.09-.05.18-.08.25-.14.14-.11.25-.3.4-.34.28-.07.4-.31.63-.42-.05-.05-.08-.07-.14-.11.32-.04.63-.36.82-.8-.03,0-.07,0-.17,0,.36-.31.68-.58.99-.85.02.02.03.04.05.06-.13.11-.26.22-.4.32-.27.21-.28.23-.23.33.24-.13.48-.26.71-.4.08-.04.12-.12.19-.17.14-.11.28-.2.42-.3.03-.02.08-.02.12-.04-.02-.05-.04-.1-.07-.18.13-.08.27-.17.42-.27.02.07.04.13.06.22.24-.38.36-.8.85-.9-.09.17-.18.33-.28.51.15.26-.24.43-.19.69.13-.02.26-.03.37-.04-.04.13-.08.24-.12.36.02.01.04.02.06.03.09-.05.18-.1.26-.15-.05.11-.1.23-.16.35.02.01.03.01.04.02.24-.19.48-.37.72-.56.03,0,.05.02.08.04-.02.13.02.3-.06.37-.17.17-.4.29-.53.38-.09.15-.13.25-.2.32-.13.14-.28.25-.42.38-.07.06-.12.15-.2.17-.33.06-.41.38-.62.57.25-.13.38-.43.71-.51-.05.09-.08.15-.12.23.33-.31.64-.59.96-.88.31-.28.5-.73.99-.79.01.11.02.23.03.4.14-.1.24-.18.34-.25.03-.02.08,0,.12,0-.01.04,0,.08-.02.12-.01.03-.05.06-.07.09.01.02.02.04.03.06.25-.48.74-.52,1.16-.72.02-.03.04-.12.09-.14.39-.12.65-.5,1.1-.53.21-.01.41-.18.6-.3.46-.27.9-.56,1.36-.82.41-.22.83-.4,1.25-.6-.01.03-.02.07-.03.12.18-.06.29-.18.46-.23.35-.11.66-.32.99-.5.33-.18.64-.38.98-.54.12-.06.29-.03.43-.07.25-.07.49-.19.75-.26.47-.13.95-.22,1.43-.36.31-.08.59-.21.93-.2.36.01.71-.11,1.07-.15.72-.08,1.44-.24,2.18-.12.16.03.33.05.5-.07.08-.05.25.04.38.05.25.02.5.03.76.04.06,0,.12.01.17-.01.15-.04.29-.09.37.1.02.03.1.04.15.04.16,0,.33-.02.49-.01.56.06,1.13.1,1.69.19.38.06.75.18,1.12.29.18.05.33.16.5.24.11.05.22.11.34.14.16.05.33.07.49.13.16.05.18.15.05.24.77.27,1.56.55,2.35.82-.04-.03-.08-.06-.12-.1.01-.01.01-.02.02-.03.22.08.44.17.65.25,0,.02,0,.04,0,.05-.08,0-.16-.01-.3-.03.07.09.1.16.15.19.1.06.21.1.31.14.27.1.46.42.81.32.02,0,.06.03.06.04-.02.16.1.14.2.2.36.21.7.48,1.05.71.14.09.35.11.44.23.22.27.55.3.83.43.22.11.54.06.66.36l.05.05c.08-.03.4.18.43.26.03.05.08.09.13.13.05.03.13.03.18.07.07.06.13.14.2.2.47.38.94.76,1.4,1.15.17.15.33.33.5.48.2.18.41.36.62.53-.07.17-.14.11-.23.03-.09-.07-.18-.14-.27-.2-.02.01-.03.03-.04.05.06.06.13.12.18.19.09.14.15.32.27.44.25.27.49.54.77.78.44.39.77.9,1.15,1.35.07.08.09.23.26.17,0,0,.05.11.07.17.02.05,0,.11.02.15.14.24.29.48.43.73.07.12.14.26.23.38.16.23.33.46.5.69.06.08.1.17.15.26,0-.01.03-.01.04-.02-.05-.12-.11-.25-.16-.37.21.18.32.39.37.67.08.42.3.81.46,1.21.45,1.15.9,2.31,1.36,3.46.03.09.13.21.1.26-.12.22.07.33.13.49v-.17s.03,0,.04-.01c.05.13.1.26.15.38.03.2.07.39.1.59-.02.01-.04.01-.06.02-.06-.15-.11-.31-.18-.51.08.05.11.07.15.1-.01-.07-.03-.12-.04-.17-.1-.1-.13-.05-.13.06-.01.14-.02.29-.03.44-.26-1.43-1.56-4.81-2.07-5.28.18.44.36.87.54,1.29.67,1.64,1.17,3.32,1.43,5.06.11.72.18,1.44.27,2.17.05.36.13.72.14,1.08,0,.46-.1.91-.05,1.38.02.19-.07.38-.08.58-.03.63-.05,1.26-.08,1.9v.36h.06c.03-.34.06-.69.09-1.04.03,0,.05,0,.07.01-.01.09-.01.19-.02.29h.06c.01-.13.02-.26.03-.4.01.02.02.04.04.05.01.02.03.03.03.03.04-.32.09-.63.13-.96-.05.03-.08.04-.12.06.03-.16.06-.31.1-.47.03.04.05.05.08.08.02-.4.04-.79.06-1.18,0-.1.01-.2.01-.3,0-.12.03-.24,0-.35-.02-.16-.07-.31-.11-.47.02,0,.03-.01.05-.01.02.11.05.22.07.34.03-.01.06-.01.09-.01-.17-.55-.18-1.1-.03-1.66.05.09.07.19.08.29.01.13,0,.26.01.39.04.44.1.88.14,1.32.06.58.01,1.14-.1,1.71-.05.29-.01.6-.04.89-.04.43-.1.86-.17,1.29-.03.17-.1.34-.14.51-.01.04-.03.08-.03.12-.03.5-.06,1-.22,1.49-.09.27-.12.55-.21.82-.23.77-.48,1.55-.73,2.32-.09.28-.22.54-.35.79-.08.16-.2.29-.3.44-.02.04-.04.08-.04.13-.02.09,0,.19-.03.26-.23.44-.47.87-.7,1.3-.27.47-.54.94-.81,1.41-.04.07-.1.12-.14.19-.1.16-.18.33-.27.5.02,0,.04.02.06.03.11-.14.22-.3.35-.43.06-.06.2-.06.26-.13.28-.37.42-.82.72-1.19.3-.37.47-.84.68-1.27.15-.3.31-.59.44-.89.19-.47.37-.94.55-1.41.05-.13.1-.26.13-.4.1-.36.19-.73.28-1.1,0,0,.03.01.04.01-.03.16-.06.32-.09.47.14-.29.24-.58.31-.88.07-.29.12-.59.18-.88.14-.69.28-1.38.4-2.08.09-.53.15-1.06.21-1.6.01-.04-.02-.09-.04-.14,0-.04-.03-.08-.02-.12.02-.06.08-.11.09-.17.03-1,.09-2,.06-2.99-.01-.71-.12-1.42-.23-2.12-.1-.6-.24-1.19-.37-1.78-.09-.41-.21-.8-.31-1.2-.02-.09-.12-.22.06-.23-.03-.13-.05-.28-.1-.41-.17-.43-.35-.85-.51-1.28-.22-.58-.41-1.17-.62-1.75-.03-.1-.03-.08-.15-.12-.05-.01-.09-.1-.12-.16-.01,0,0-.04.01-.06.03.02.07.05.16.11-.08-.21-.14-.35-.2-.5.02-.01.04-.01.05-.02.02.04.04.08.06.12.05.13.08.26.14.38.2.35.44.68.61,1.04.14.3.19.65.3.97.16.47.35.93.49,1.4.1.33.16.68.23,1.03.15.79.4,1.56.35,2.38,0,.1.04.2.08.29.05.12.14.23.15.35.03.4.04.8.06,1.2,0,.06,0,.12.02.18.06.14.12.28.18.41-.02,0-.04.02-.06.02-.03-.1-.06-.2-.1-.36-.03.08-.05.09-.04.1.08.32.17.63.26.95.01.03-.03.09-.05.13-.13.29-.08.59-.02.89.01-.27.03-.55.04-.82h.11c-.02.39-.04.78-.05,1.17,0,.14.02.28.03.42.02,0,.05,0,.07-.01-.06-.41-.02-.69.19-.98,0,.14,0,.23-.01.32-.01.23-.03.45-.03.68s.04.46.03.68c-.01.27-.08.54-.06.8.02.52-.13,1.01-.24,1.51-.04.18-.15.36-.12.53.04.35-.04.66-.16.98-.07.2-.14.42-.12.62.03.3.01.43-.17.61-.06.05-.1.18-.07.25.07.22.03.38-.18.53-.02-.04-.03-.08-.07-.15-.02.22-.05.4-.07.58.02,0,.03,0,.04.01.03-.12.06-.23.09-.35.04.01.07.03.11.04-.16.41-.33.82-.49,1.24-.17.45-.34.9-.51,1.37.04-.04.08-.08.16-.15-.09.23-.14.42-.22.59-.15.32-.19.69-.49.93-.06.05-.11.15-.1.21.06.34-.16.58-.31.82-.77,1.3-1.76,2.46-2.69,3.65-.09.12-.21.23-.32.34-.1.1-.2.19-.29.3-.23.27-.44.56-.69.82-.52.53-1.06,1.06-1.59,1.58.21-.08.41-.18.59-.3.21-.14.41-.31.62-.46,0-.01.03-.01.06-.02-.03.07-.06.12-.1.23.34-.33.65-.62.95-.92.03.03.05.06.08.08-.2.19-.39.37-.58.55t.01.01c.32-.25.64-.51.96-.77.03.02.05.05.07.07-.92.98-1.85,1.95-2.79,2.95.79-.65,1.57-1.28,2.34-1.91-.02.03-.04.07-.07.1-1.07,1.07-2.18,2.1-3.36,3.06-1.14.92-2.48,1.52-3.66,2.36-.2.15-.49.2-.73.31-.24.11-.47.24-.7.36.13,0,.25-.04.36-.08.11-.03.23-.13.35.1-.55.18-1.07.36-1.6.53.38-.03.74-.12,1.1-.2.08-.02.17-.01.28-.01.1-.19.53-.37.75-.27-.29.18-.57.36-.85.53l.03.06c.06,0,.13,0,.19-.02.32-.12.66-.21.96-.37.87-.47,1.73-.96,2.59-1.45.36-.2.71-.42,1.06-.64.46-.3.93-.6,1.37-.93.38-.28.72-.61,1.08-.92.06-.05.13-.09.19-.14.03.04.06.07.09.11-.1.05-.2.1-.3.15.01,0,.03.02.04.04h.1s.05.01.07.01c.1-.13.19-.26.29-.39.04-.05.14-.14.16-.12.17.09.26-.04.36-.12.2-.17.4-.35.59-.53.18-.16.36-.33.54-.49.01.01.02.02.04.03-.04.08-.07.15-.11.23,2.68-2.4,4.72-5.24,6.14-8.54l.06.03v.44c.11-.16.21-.29.31-.44-.11-.03-.21-.07-.31-.11.58-1.24,1.09-2.48,1.39-3.81.1-.45.24-.9.34-1.35.06-.28.07-.58.32-.76-.14.54-.28,1.08-.42,1.66.52-.12.39-.63.64-.88.02.01.04.01.07.02-.05.27-.1.53-.15.79.27-.75.36-1.53.39-2.33.05.32.26.63.03.96-.02.03.02.1,0,.15-.04.28-.06.57-.13.84-.05.2-.26.4-.24.58.02.26-.03.49-.13.7-.16.32-.02.75-.35,1.01-.03.03-.03.1-.04.16-.04.22-.05.46-.13.66-.08.18-.07.43-.31.53-.02.01-.01.1-.01.15s.03.1.02.15c-.06.33-.34.58-.31.94,0,.02-.01.05-.02.06-.11.15-.21.28-.33.44.02-.09.03-.17.04-.25-.02-.01-.03-.01-.05-.02-.08.19-.16.38-.24.57l.06.03c.05-.06.09-.11.14-.17,0,.1-.01.17-.04.24-.42,1.15-1.1,2.16-1.71,3.2-.35.58-.75,1.12-1.14,1.66-1.51,2.11-3.2,4.05-5.26,5.64-.85.66-1.75,1.25-2.64,1.85-.24.17-.51.28-.75.41.01.01.02.01.03.02-.78.43-1.56.87-2.34,1.3-.15.08-.3.14-.45.21-.05.02-.1.04-.14.07-.22.1-.44.18-.64.31-.23.15-.61-.01-.74.35-.01.02-.06.02-.09.03-1.84.66-3.71,1.21-5.63,1.57-.95.18-1.91.32-2.87.48.64-.05,1.27-.12,1.91-.21,2.07-.28,4.06-.89,6.03-1.57,1.14-.4,2.28-.82,3.32-1.44.19-.12.38-.23.58-.33.26-.13.57-.21.79-.39.37-.3.85-.4,1.19-.76.26-.27.61-.44.93-.65.27-.17.56-.32.82-.51.16-.12.27-.3.43-.41,1.74-1.29,3.23-2.86,4.74-4.4.09-.1.2-.19.3-.29.01,0,.02.02.03.03-.52.59-1.04,1.19-1.58,1.8.08-.02.13-.04.18-.05-.28.3-.59.57-.88.86-1.49,1.47-3.1,2.79-4.91,3.85-.63.38-1.29.72-1.94,1.06-.68.37-1.32.84-2.1.98-.03.01-.06.03-.14.08.14-.02.22-.03.3-.04.01.03.02.05.03.08-1.34.51-2.68,1.02-4.02,1.53.22-.04.43-.11.64-.17.22-.07.43-.13.64-.19.01.02.02.05.02.07-1.4.57-2.78,1.17-4.28,1.27-.02.05-.03.1-.05.12-.06.02-.12.03-.18.04-1.24.33-2.52.38-3.76.66-.52.12-1.08.06-1.62.08-.64.03-1.28.05-1.92.07,0,.03,0,.05.01.08h1.07v.09c-.19.01-.39.02-.59.03v.05c.25.02.51.04.77.06-.01.04-.01.08-.01.12-.34,0-.69,0-1.03-.01-.14,0-.27-.04-.41-.04-.62,0-1.24.01-1.86,0-.4,0-.81-.18-1.17.07.05.01.13.03.2.04v.08c-.22.01-.44.04-.65.03-.17-.01-.33-.09-.5-.12-.59-.09-1.17-.18-1.75-.26-.16-.03-.31-.06-.46-.08-.01.02-.01.04-.02.06.21.06.42.12.69.2-.11.03-.15.04-.22.06.21.05.39.1.57.15,0,.01-.01.02-.01.04-.1-.02-.19-.03-.33-.05.08.07.13.11.22.19-.11-.01-.17,0-.23-.01-.37-.09-.74-.17-1.11-.28-.21-.06-.36-.05-.42.24.87.23,1.75.48,2.63.71.41.11.86.08,1.23.34.03.03.11.02.15.01.37-.14.65.06.96.19-.17-.01-.35-.03-.52-.04.69.22,1.4.19,2.11.23l.6.03c.52.02,1.05.04,1.57.06.52.01,1.04.02,1.56.04.27,0,.54.03.81.05.13.01.26.05.38.05.39-.03.78-.07,1.16-.11.01.01.01.03.01.04-.12.05-.23.1-.35.16.01.02.01.04.01.06.25-.04.49-.07.74-.11-.01-.01-.01-.03-.01-.05-.12.02-.25.03-.37.04,0-.02-.01-.04-.01-.06.29-.06.59-.17.88-.17.73-.01,1.4-.32,2.13-.31.2,0,.4-.06.59-.09h.02s.02-.01.03-.02c.02,0,.04-.01.06-.01.1-.04.21-.07.31-.08.53-.05,1.04-.22,1.58-.22.41,0,.83-.16,1.24-.27.5-.13.99-.27,1.49-.41.06-.02.11-.06.17-.09.12-.07.24-.14.37-.18.09-.04.2-.01.28-.05.81-.35,1.63-.68,2.43-1.06.7-.34,1.39-.72,2.05-1.12.65-.4,1.34-.74,1.89-1.28.07-.06.17-.1.27-.17-.01.07-.02.1-.04.17.42-.31.83-.57,1.19-.89.35-.31.8-.46,1.13-.83.4-.45.92-.8,1.38-1.21.38-.34.72-.74,1.13-1.05.26-.19.46-.45.7-.66.06-.05.12-.08.19-.12-.19.36-.56.57-.69.96.09-.04.14-.11.19-.18.05-.08.08-.18.14-.24.36-.31.72-.61.87-1.08.05-.15.18-.28.27-.41.16-.23.33-.46.63-.54-.06.09-.1.18-.16.26.08-.07.15-.13.23-.2.03-.02.07-.04.1-.06.15-.33.33-.65.66-.9-.04.1-.07.16-.12.28.31-.23.52-.45.63-.75.03-.08.09-.15.14-.23.08-.1.21-.2.24-.32.07-.3.24-.52.45-.73-.01.07-.03.14-.03.16.11-.15.25-.34.39-.52l.03-.06c.32-.51.49-1.1.9-1.58.34-.4.35-1,.74-1.39.02-.02.02-.07.03-.11.04-.09.08-.19.12-.28.15-.32.31-.63.45-.95.07-.16.09-.35.17-.5.12-.24.3-.44.41-.68.19-.41.35-.84.53-1.26.04-.11.09-.21.14-.31.01,0,.03.01.04.01,0,.07-.01.13-.01.19.02.01.03.01.05.01.09-.26.18-.51.27-.77h0c-.01-.06-.03-.1-.02-.15.11-.36.27-.71.55-.99-.02.12-.04.24-.06.37.23-.19.24-.51.05-.62.03-.1.06-.21.1-.31.03.06.06.12.1.18.01,0,.05-.01.08-.01-.01-.07-.03-.14-.04-.21-.01-.12-.03-.24-.01-.36.08-.36.17-.72.27-1.08.17-.65.34-1.3.51-1.95,0-.01.03-.02.08-.06-.08.48-.15.92-.22,1.4.07-.05.11-.08.14-.1l.06.03c-.06.21-.12.43-.19.68-.05-.08-.08-.12-.13-.19-.03.17-.03.32-.08.44-.08.17-.1.34-.25.5-.12.13-.09.4-.13.6.02.01.04.01.07.02.06-.09.13-.18.22-.31-.09.01-.14.01-.19.02.01-.04.01-.11.03-.11.24-.08.16-.31.23-.47.06-.14.15-.28.22-.42.03.01.05.02.08.04-.12.28-.24.56-.37.86.08-.02.11-.03.16-.05-.02.32-.38.48-.3.81,0,.01-.04.03-.05.04-.03.06-.08.11-.1.17-.1.33-.18.66-.3.98-.18.47-.39.92-.58,1.37.06.03.1.05.13.06h.01c.06-.06.11-.1.18-.15-.02.13-.05.25-.05.37,0,.06.04.14.02.19-.11.36-.24.71-.37,1.06.4-.56.54-1.24.76-1.88.12-.35.33-.64.51-.95.14-.23.26-.46.38-.69.01.01.04.05.05.09.4-.51.49-1.13.66-1.73.09-.33.21-.65.32-.97.02,0,.05.02.08.02-.06.39-.12.79-.19,1.19.06-.02.12-.03.17-.04v.19s.01.05.01.08c.03-.09.07-.2.1-.3.1-.56.21-1.13.31-1.69l.05-.05v.16c0,.21.03.43,0,.63-.06.34-.14.68-.22,1.01-.01.05-.04.1-.05.15-.02.29-.1.59-.04.86.1.54-.11,1.02-.24,1.52-.08.33-.25.65-.39.97-.03.08-.05.16-.03.27.05-.07.1-.14.17-.23.11.37,0,.7-.19.91-.5.57-.64,1.31-.99,1.94-.15.28-.28.56-.44.83.11-.18.1-.4.21-.58.12-.21.18-.45.28-.67.12-.29.25-.58.37-.87.06-.15.09-.3.16-.44.09-.17.04-.43.33-.47.04,0,.07-.09.13-.17-.09.01-.14.02-.24.04.17-.53.32-1.03.48-1.53-.03-.01-.06-.02-.09-.03-.1.26-.2.52-.31.81,0-.09,0-.14-.01-.19-.02-.01-.04-.01-.06-.02-.07.29-.15.58-.22.88-.09-.12-.09-.11.05-.56.06-.19.1-.39.13-.6-.06.08-.11.15-.16.23-.05-.04-.1-.1-.13-.1-.14.06-.29.12-.39.22-.11.11-.21.26-.27.4-.31.74-.77,1.38-1.2,2.04-.15.24-.24.52-.38.77-.08.14-.21.25-.32.38-.02-.01-.04-.02-.06-.03.06-.15.12-.3.18-.46-.04.05-.09.09-.13.13-.02-.01-.04-.02-.06-.03.1-.19.19-.39.29-.58.01.01.03.01.04.02-.03.14-.07.28-.11.42.15-.3.29-.61.45-.91.03-.07.09-.13.14-.19-.02-.23-.03-.46-.04-.68-.04-.01-.07-.01-.1-.02-.14.31-.28.62-.4.94-.05.13-.08.25-.22.32-.08.05-.13.17-.19.25.02.01.03.02.05.03.05-.07.1-.15.15-.22.03.01.05.03.08.04-.06.1-.09.24-.17.28-.16.08-.21.2-.26.35-.1.28-.22.55-.45.75.02-.1.05-.2.08-.3-.03,0-.07-.01-.1-.02-.05.25-.12.49-.14.74,0,.16,0,.28-.14.31-.05.21-.09.4-.14.58.04.01.07.02.13.03-.32.5-.62.97-.93,1.44-.03.05-.08.09-.12.13-.04.02-.11.01-.13.04-.08.13-.14.27-.23.39-.07.12-.17.23-.23.31.05.08.09.12.08.14-.08.19-.15.38-.26.55-.1.15-.26.26-.35.41-.14.24-.47.39-.4.76.11-.14.22-.26.34-.41.2.39-.24.53-.21.84.14-.1.28-.2.38-.34.23-.31.44-.64.66-.97.03-.04.06-.07.08-.11.08-.18.14-.35.22-.52.02.01.05.02.07.03-.06.13-.11.25-.17.38.05,0,.08-.03.1-.06.18-.24.37-.49.55-.74.06-.11.07-.25.14-.35.12-.21.27-.4.41-.59.05-.06.14-.09.19-.15.14-.2.26-.41.39-.62.02,0,.04.03.05.04-.1.17-.21.33-.31.51-.09.17-.17.35-.25.53.02.01.05.02.08.03.08-.18.13-.37.23-.52.11-.16.19-.39.45-.38-.07.25-.34.42-.28.74.05-.07.1-.13.16-.2-.02.26,0,.27-.3.56-.23.21-.19.49-.24.75.06-.09.08-.19.13-.27.14-.25.28-.5.43-.74.08-.13.18-.24.26-.36.17-.28.33-.57.5-.86.02.16.02.31-.04.43-.26.46-.6.86-.86,1.33-.2.35-.35.72-.54,1.07-.03.05,0,.13.01.19h-.01c-.11.18-.21.36-.33.53-.15.2-.24.45-.53.5-.08.02-.15.12-.22.18l.03.03c.08-.05.15-.1.23-.15.01,0,.02.02.02.03-.13.18-.27.36-.4.53.03.03.05.05.08.07.13-.14.27-.27.39-.42.13-.16.25-.32.36-.48.05.03.09.05.15.09-.11.13-.21.26-.32.39-.31.35-.62.69-.93,1.04.03.02.07.06.12.1.07-.1.14-.19.21-.28.23-.27.55-.47.67-.83,0-.03.05-.05.08-.07.15-.12.31-.22.43-.36.18-.2.33-.43.5-.65.02.01.03.02.05.03-.14.22-.28.44-.43.65-.41.58-.82,1.17-1.23,1.75-.03.03-.06.08-.1.1-.33.12-.53.4-.76.64-.22.23-.38.5-.6.72-.59.61-1.18,1.21-1.79,1.79-.58.54-1.18,1.06-1.78,1.58-.28.24-.59.44-.88.66-.04.03-.12.07-.12.1.01.22-.15.2-.28.24-.05.01-.09.03-.13.06-.23.2-.46.4-.7.6.02.01.07.03.12.05-.05.05-.11.1-.17.15.08.01.15,0,.19-.04.23-.2.44-.42.68-.61.17-.13.37-.21.56-.31.08-.04.22-.08.23-.13.07-.3.33-.41.52-.59.03-.04.1-.09.13-.07.19.08.26-.08.36-.17.16-.14.31-.29.47-.43.13-.12.33-.13.38-.36.03-.14.22-.24.35-.35.07-.06.18-.09.24-.16.26-.3.52-.63.78-.93.31-.36.65-.69,1.05-.98.53-.39.97-.9,1.45-1.36.01-.01.01-.06.02-.12-.08.07-.14.11-.2.16.21-.38.44-.73.69-1.08.03-.03.11-.02.17-.03.08-.17.17-.35.25-.52.11.29-.21.42-.21.68.56-.76,1.11-1.53,1.65-2.31.08-.12.16-.24.24-.37.32-.54.63-1.09.94-1.63-.09.09-.19.17-.28.26-.01-.01-.02-.01-.03-.01.12-.19.24-.37.36-.56.02.01.03.02.05.02-.02.08-.04.15-.06.22.22-.34.43-.68.65-1.01.11-.17.24-.32.34-.49.04-.08,0-.22.05-.29.15-.25.21-.54.45-.76.22-.21.31-.55.47-.85-.07.01-.11.02-.17.03.08-.12.15-.21.21-.31.02-.04.05-.11.04-.12-.15-.11-.02-.21,0-.31.06-.17.11-.34.19-.5.08-.21.16-.43.29-.6.22-.26.34-.56.42-.88.02-.06.11-.1.2-.19.01-.01.02-.08.03-.15-.04,0-.09,0-.15-.02.03-.09.05-.17.08-.25.12-.34.26-.67.36-1.01.14-.49.24-.98.36-1.48.02-.05-.01-.18.12-.1.01-.17-.01-.34.02-.51.02-.1.12-.18.18-.28.02.01.05.02.07.03-.09.25-.18.5-.27.76-.09.46-.17.93-.27,1.46.05-.15.1-.24.13-.33.2-.71.41-1.41.61-2.11.06-.21.14-.42.18-.63.03-.16.01-.33.01-.49-.11.06-.18.14-.21.23-.06.18-.1.36-.15.54-.02,0-.04-.01-.06-.01,0-.04.01-.08.01-.11.09-.35.26-.69.18-1.07-.01-.09.04-.2.08-.29.01-.02.07-.02.11-.03-.03-.04-.06-.08-.08-.12s-.03-.09-.02-.13c.05-.16.1-.33.15-.49.04.02.07.05.1.06.04-.21.07-.42.11-.62.03,0,.06.01.09.02-.11.6-.23,1.2-.35,1.8.02.01.04.01.05.02.07-.22.14-.44.21-.67,0,.08.02.15.02.21h.04c.06-.52.13-1.05.2-1.63-.06.07-.08.1-.11.13-.02,0-.04-.01-.06-.02.06-.25.12-.51.18-.77.02-.08.07-.19.04-.23-.14-.17,0-.28.05-.46.04.11.07.18.09.25.05-.35.03-.69.03-1.02,0-.09.02-.17.03-.26.01-.13.04-.27.04-.41.02-.26.03-.51.03-.77,0-.16-.03-.32-.05-.47Zm-59.13-35.62s-.03-.05-.04-.07c.3-.14.44-.56.89-.43-.29.17-.57.33-.85.5Zm-11.97,24.43c-.2.42-.41.84-.63,1.25-.15.29-.31.58-.46.88-.05.09-.07.2-.11.31-.07.19-.14.39-.21.58h-.08c-.01-.11-.04-.22-.02-.32.07-.35.16-.7.25-1.05.02-.06.09-.11.14-.17.03-.02.07-.04.08-.07.16-.44.32-.87.48-1.29-.07.07-.15.15-.22.23-.02,0-.03-.01-.04-.01.13-.55.25-1.1.37-1.65.03,0,.06,0,.08,0,.16.26.02.64.33.87.11-.14.21-.26.31-.39.02.01.04.03.06.04-.11.26-.2.53-.33.78Zm.34-3.6c-.14.1-.32.14-.49.21v-.37c.19.1.26.02.3-.15.03-.12.08-.24.13-.36.02.01.04.01.06.02-.04.15-.09.29-.14.43.02.01.03.02.04.02.06-.09.11-.18.19-.3.06.2.06.39-.09.5Zm.82-1.05c-.12.19-.33.34-.54.37.18-.42.33-.86.56-1.25.12-.2.38-.32.58-.48.02.02.04.04.05.06-.21.43-.4.88-.65,1.3Zm1.44-9.16s-.04-.06-.07-.09c.12-.08.24-.17.35-.25.02.02.04.05.06.07-.11.09-.22.18-.34.27Zm.62-1.78s-.02-.04-.03-.06c.15-.05.31-.09.45-.14q-.1.21-.42.2Zm.76,13.76s-.06-.03-.1-.04c.1-.24.19-.48.28-.72.03.01.06.01.08.02-.09.25-.17.49-.26.74Zm8.5-6.54s-.03-.03-.05-.05c.15-.16.31-.32.46-.48.03.02.06.05.08.07-.16.16-.32.31-.49.46Zm1.53-1.07s.04-.11.07-.21c-.17.17-.33.32-.48.47-.03-.02-.05-.04-.07-.05.03-.08.06-.16.1-.25-.12.09-.23.17-.34.25.16-.31.32-.6.66-.74.07-.03.11-.12.17-.19.12-.13.24-.25.36-.37.27-.29.48-.68.8-.84.38-.18.55-.56.94-.76-.16.2-.3.35-.42.51-.09.12-.25.26.06.28.02.01.04.08.06.12.12-.06.23-.13.35-.2-.1-.01-.17-.02-.28-.04.27-.12.49-.22.72-.33-.02.25-.08.31-.3.35-.07.12-.13.23-.19.34.01,0,.03,0,.05-.01-.76.56-1.51,1.12-2.26,1.67Zm2.33-1.68s-.04.01-.06.01c0-.02.02-.02.03-.03.01.01.02.02.03.02Zm-.65,1.66c.1-.11.16-.22.25-.28.19-.12.4-.22.6-.34.07-.05.11-.16.18-.22.07-.05.17-.07.28-.06-.34.31-.68.62-1.04.95-.06-.01-.13-.02-.27-.05Zm.42.26s-.07-.07-.11-.1c.15-.14.31-.29.46-.43.02.02.04.05.06.07-.14.15-.28.31-.41.46Zm.86-.07c-.19-.41-.15-.45.53-.48-.2.18-.36.33-.53.48Zm1.22-.88s-.03-.02-.04-.04c.02-.06.04-.13.07-.19.12-.13.24-.25.36-.38.1-.14.19-.27.42-.19.07.02.19-.07.31-.09-.37.3-.74.6-1.12.89Zm1.62-.05c.18-.36.52-.37.77-.52.01.02.02.03.03.05-.25.15-.5.3-.8.47Zm1.6-18.17s-.07.02-.1.03c-.15.07-.31.15-.47.21-.06.02-.13-.01-.2-.01-.19-.01-.39-.02-.63-.03.18-.07.34-.12.5-.17,0-.02,0-.03-.01-.04-.08.01-.17.02-.26.03,0-.01,0-.03-.01-.05.2-.04.38-.08.58-.12-.17-.03-.33-.06-.49-.09,0-.01.04-.03.1-.08-.28-.13-.46.14-.69.1.18-.24.46-.24.71-.3.33-.07.67-.1.99-.19.35-.09.68-.23,1.05-.35-.08-.02-.12-.04-.16-.05v-.05h1.11s.02.03.03.04c-.16.08-.32.16-.47.24.02.01.06.02.15.05-.8.23-1.57.45-2.33.67h0c0,.09,0,.16-.02.27.17.06.3-.11.47-.15.17-.05.35-.06.56-.09-.12.21-.22.36-.41.13Zm1.41,15.7s-.01-.04-.02-.06c.23-.1.46-.2.69-.29l.03.06c-.23.1-.47.19-.7.29Zm.75.63s-.03-.06-.04-.09c.19-.06.39-.13.58-.19.01.02.01.04.02.06-.19.07-.37.15-.56.22Zm.59-1.1s0-.02-.01-.03c.07-.04.14-.09.2-.13,0-.02-.01-.03-.01-.04-.16.05-.32.12-.48.17-.15.05-.31.09-.47.13.48-.26.95-.55,1.53-.39-.24.1-.5.19-.76.29Zm5.81-1.24c-1.08-.02-2.11.29-3.16.46-.24.04-.47.08-.74.13.19-.4,4.18-.86,4.94-.65-.35.02-.69.06-1.04.06Zm11.34,1.72c-.29-.11-.58-.21-.87-.31.01-.01.01-.03.02-.05.29.1.58.2.86.31,0,.01-.01.03-.01.05Zm5.26,3.51c-.43-.25-.87-.51-1.3-.76.01-.02.03-.04.04-.06.43.24.87.49,1.31.73-.02.03-.03.06-.05.09Zm.73.53c-.19-.14-.38-.29-.56-.43.01-.02.02-.04.03-.06.19.15.38.29.57.43-.01.02-.03.04-.04.06Zm3.17,3.09c.24-.02.25.2.33.3-.09-.08-.22-.19-.33-.3Zm2.49,2.79s.04-.03.05-.04c.5.3.7.81.93,1.3-.33-.42-.65-.84-.98-1.26Zm3.24,9.05c.06.33.11.67.17,1.01-.02,0-.04.01-.07.01-.05-.34-.11-.67-.17-1.01.02-.01.05-.01.07-.01Zm-.12.02s-.05.02-.08.03c-.16-.16-.07-.4-.13-.6.02,0,.04-.01.07-.02.04.2.09.4.14.59Zm.25-3.34c-.12-.35-.24-.71-.38-1.05-.07-.17-.18-.32-.26-.53.07.03.17.05.19.1.18.48.35.97.52,1.45-.03,0-.05.02-.07.03Zm-4.9,26.47s-.03-.03-.05-.05c.44-.46.87-.92,1.31-1.38l.05.05c-.44.46-.87.92-1.31,1.38Zm6.21-18.91c-.03-.07-.05-.14-.08-.23-.02.08-.03.14-.04.19h-.03v-1.04c.07.4.14.74.2,1.08h-.05Zm3,5.8s-.06-.01-.1-.01c.07-.55.13-1.09.19-1.64.02,0,.04,0,.05.01-.04.54-.09,1.09-.14,1.64Zm.29.35s-.06,0-.08-.02c.04-.23.08-.47.12-.71.02.01.05.01.07.02-.04.23-.08.47-.11.71Zm-31.99,27c-.25-.04-.51-.08-.77-.12.27-.08.53-.03.78.06-.01.02-.01.04-.01.06Zm27.13-14.35c-.05-.06-.08-.1-.08-.1.21-.24.41-.47.62-.7.02.02.03.03.05.04-.19.25-.39.5-.59.76Zm3.39,2.03s-.04-.03-.05-.04c.14-.22.29-.44.43-.65.02,0,.03.02.05.03-.14.22-.29.44-.43.66Zm.04-7.51s-.04-.03-.07-.04c.18-.37.37-.75.55-1.13.02.01.03.02.05.03-.17.38-.35.76-.53,1.14Zm3.07-17.44c-.05.09-.03.21-.04.31h-.04c-.04-.21-.09-.42-.13-.66.19.06.33.11.21.35Zm-.26.33s0-.03.01-.04c0-.02,0-.03.04-.08.05.47.1.91.14,1.35.02.21,0,.43.02.65.01.08.09.16.11.24.04.28.07.56.07.83,0,.05-.14.11-.26.19v-1.83c-.08.06-.11.09-.16.12,0-.12-.03-.25,0-.34.05-.14.15-.25-.04-.35,0-.01.05-.1.07-.15.02-.05.04-.15.03-.16-.24-.13-.16-.27-.04-.43Zm-.44,6.76c-.16.73-.03,1.52-.4,2.22,0-.77.14-1.5.4-2.22Zm.01,3.52s-.03.06-.02.08c.11.29.04.55-.14.79-.01.02-.03.04-.03.06.03.53-.26.98-.33,1.49-.06.45-.3.88-.47,1.31-.03.07-.09.12-.2.15.08-.29.15-.6.24-.89.25-.84.53-1.66.75-2.5.13-.51.17-1.03.27-1.55.04-.22.11-.44.15-.61.1-.02.15-.03.24-.04-.15.57-.31,1.14-.46,1.71Zm.51-3.62c-.04.08-.07.13-.13.24.02-.25.05-.43.06-.62.03-.68.06-1.35.09-2.03.01-.07.04-.14.06-.22-.01-.2-.03-.41-.05-.62h.1c-.08.21.17.42-.05.62.01.28.04.56.05.84,0,.29-.01.58.01.87,0,.15.1.32.05.43-.13.33-.12.65-.07.99h-.08c-.01-.15-.02-.31-.04-.5Zm.17,2s-.06,0-.08-.01c.05-.35.1-.7.15-1.05.03.01.06.01.08.02-.05.35-.1.69-.15,1.04Zm2.14,8.84s.04.02.07.03c-.11.25-.21.5-.32.75-.02-.01-.04-.03-.07-.04.11-.25.22-.49.32-.74Zm-1.43,2.96c.18-.39.54-.88.68-.91.01.24-.48.9-.68.91Zm-2.03,7.76s-.02-.02-.03-.03c.13-.15.26-.29.39-.44.03.02.05.05.08.07-.15.13-.29.27-.44.4Zm1.7-3.14q-.08-.14.19-.46c.08.1.05.18-.19.46Zm.97-1.56c-.23.1-.38.28-.47.53-.08.19-.25.32-.39.48.22-.37.46-.74.69-1.11.02,0,.08.02.12.04.04-.06.1-.14.15-.21.08.13.06.2-.1.27Zm.52-.93c-.02.3-.16.52-.42.65-.02-.04-.06-.1-.05-.11.15-.19.31-.36.47-.54-.02-.05-.04-.11-.07-.2.14-.07.3-.14.47-.22.01.01.02.01.03.01-.14.14-.28.28-.43.41Zm.53-1.39c-.11.21-.23.42-.34.63-.03-.01-.05-.03-.08-.04.14-.21.27-.41.4-.61q.09-.41.34-.51c-.1.18-.21.35-.32.53Zm.26-.76c-.06-.34.25-.46.4-.67-.13.23-.27.45-.4.67Zm.34-1.4c.03-.06.05-.13.08-.19.16-.41.31-.81.48-1.21.09-.2.22-.38.33-.57.01,0,.02.01.03.01-.13.34-.24.68-.38,1.01-.15.33-.32.65-.48.98l-.06-.03Zm1.6-33.3c-.22-.04-.5-.57-.47-.91.15.29.3.59.47.91Zm-.49,25.09c.06-.31.13-.62.19-.93.04.01.07.02.11.03-.08.3-.16.6-.25.91-.02-.01-.04-.01-.05-.01Zm.3-2.2c.04-.18.07-.35.11-.53.03.01.06.02.1.04-.22.37.1.83-.24,1.23-.03-.21-.05-.37-.07-.54-.01,0-.03,0-.05.01,0,.08-.01.16-.01.23h-.05c.03-.32.06-.63.09-.94h.08c-.02.17-.03.33-.04.49.03.01.05.01.08.01Zm-.16,2.48c.13.06-.03.25.15.25-.01.05-.02.13-.05.15-.18.08-.13.2-.08.33-.03.04-.06.08-.1.13-.02-.01-.04-.02-.07-.02.05-.28.1-.55.15-.84Zm.11,1.61c-.06.19-.13.38-.2.57-.03,0-.06.01-.09.01-.02-.09-.08-.18-.06-.26.08-.41.18-.81.27-1.21.02-.07.04-.13.07-.21.29.37.11.74.01,1.1Zm.11-1.56c.15-.46.29-.89.43-1.32.02.01.05.02.08.03-.14.43-.18.9-.51,1.29Zm.23-1.55c.04-.49.08-.98.13-1.47.03,0,.06,0,.09,0-.05.49-.09.98-.13,1.47-.03-.01-.06-.01-.09-.01Zm.34,6.59s-.08-.02-.12-.03c.07-.17.14-.35.21-.52.03.01.06.03.09.04-.06.17-.12.34-.18.51Zm.03-.61c.19-.44.38-.87.58-1.31-.18.45-.21.95-.58,1.31Zm.63-3.94c-.1-.49.06-.95.18-1.42.17.51-.11.95-.18,1.42Zm.78-7.92c.01.19-.11.38-.17.57-.02.09-.03.19-.03.28-.01-.56-.01-1.12-.04-1.67-.02-.59-.05-1.17-.09-1.76-.04-.57-.08-1.14-.12-1.71-.03,0-.06,0-.1.01.01.23.02.46.04.7.03.42.1.83.11,1.26.01.36-.06.73-.06,1.1,0,.21.02.43.1.62.1.27.05.53-.02.8v-.34s-.02-.01-.03-.01c-.04.15-.07.29-.11.43,0,.03-.02.08,0,.09.32.28,0,.55.02.82h-.11v-1.87c-.09.06-.14.08-.18.11-.03-.01-.05-.01-.07-.02.03-.15.05-.31.08-.46.02,0,.04,0,.05,0,.01.07.02.15.03.22h.07v-.43c0-.15-.02-.3.01-.44.1-.39,0-.74-.08-1.11-.01-.05.06-.12.07-.19.01-.08.01-.17,0-.25-.02-.25-.09-.49.04-.73.04-.08-.01-.22-.05-.32-.09-.23-.14-.45-.03-.68.01-.03,0-.08-.02-.09-.17-.12-.09-.3-.11-.45-.07-.5-.13-1.01-.22-1.5-.06-.36-.17-.71-.24-1.07-.11-.55-.18-1.11-.3-1.65-.1-.4-.31-.78-.36-1.18-.09-.6-.4-1.11-.5-1.7-.08-.4-.3-.76-.46-1.14.03-.01.06-.02.09-.03.03.08.05.17.09.25.06.11.02.29.22.29.02,0,.04.06.05.1.12.41.23.83.37,1.24.19.56.31,1.17.63,1.65.34.48.44,1.02.62,1.54.22.62.25,1.31.37,1.98.08.42.2.84.26,1.27.07.48.13.98.14,1.47.02.7,0,1.41-.01,2.11,0,.11,0,.21.02.31.1.52,0,1.05.03,1.57Zm-1.36,9.17h.01v-.03s-.01.01-.01.02h0Zm-26.07-31.45s-.05-.02-.08-.03c.02.02.04.04.07.06,0-.01,0-.02.01-.03Z"/>
        <path d="m134.25,50.12c-.11-.36-.25-.71-.33-1.08-.13-.56-.22-1.13-.33-1.7-.01-.07-.04-.13-.11-.21-.02.14-.05.27-.04.41.01.19.06.38.09.58.04.28.08.55.12.83-.04,0-.08.02-.12.03-.06-.19-.15-.39-.16-.58-.04-.5-.06-1-.04-1.5,0-.21.15-.41.19-.61.08-.36.14-.72.21-1.08.01-.07,0-.14,0-.21.01-.1.04-.2.06-.3.01-.07,0-.15.01-.23.02-.15.05-.29.07-.44.03-.27.03-.54.06-.81.03-.22.08-.44.12-.66.03-.18.05-.37.1-.54.06-.25.15-.5.22-.74.04,0,.08.01.12.02-.03.43-.04.86-.08,1.29-.05.63-.12,1.26-.19,1.89-.01.11-.09.21-.11.32-.08.4.01.8-.09,1.2-.12.46.11.92.24,1.37.17.6.32,1.2.47,1.81.04.15,0,.32,0,.5-.13-.25-.25-.48-.37-.71-.17,0-.19.09-.16.23.05.21.09.43.12.64.01.09-.01.19-.02.29-.02,0-.04,0-.06,0Z"/>
        <path d="m195.69,75.07c-.11-.13-.21.03-.29.09-.19.14-.36.31-.54.46-.02-.02-.03-.04-.05-.06.15-.17.29-.36.47-.51.91-.78,1.82-1.54,2.73-2.32.17-.14.31-.32.47-.48.64-.63,1.28-1.25,1.91-1.89.28-.28.49-.63.76-.92.31-.34.66-.64.99-.96.08-.07.13-.17.2-.25.06-.08.13-.16.2-.23.14-.13.3-.26.44-.38-.01.25-.2.51-.42.59-.03.01-.06.05-.07.09-.37.78-1.01,1.37-1.55,2.02-.34.41-.75.76-1.12,1.15-.28.3-.53.63-.83.91-.53.49-1.07.97-1.63,1.42-.53.43-1.09.83-1.66,1.25Z"/>
        <path d="m151.83,25.13c-.3.43-.6.85-.89,1.28-.2.3-.4.6-.57.92.39-.22.51-.72.97-.94-.21.39-.48.65-.77.9-.75.64-1.49,1.29-2.24,1.93l-.05-.04c.15-.24.28-.48.44-.71.17-.23.36-.45.55-.67.26-.3.54-.59.8-.88.17-.19.35-.37.4-.64.03-.15.11-.29.17-.43-.05.03-.1.06-.15.08-.01-.01-.02-.03-.03-.04.33-.24.65-.49.98-.73,0,0,.02,0,.03.01-.12.14-.25.28-.37.42.01.01.02.02.03.04.21-.18.42-.37.63-.55.02.02.04.04.06.05Z"/>
        <path d="m155.18,25.66c.21-.22.41-.44.64-.65.07-.07.19-.1.3-.13.24-.07.32-.19.3-.45,0-.05.03-.12.07-.16.37-.35.8-.56,1.3-.66.25-.05.4.17.3.4-.04.1-.12.19-.2.25-.11.1-.23.2-.37.25-.75.28-1.39.76-2.07,1.17-.07.04-.17.04-.25.06,0-.03,0-.05-.01-.08Z"/>
        <path d="m139.9,36.47c-.04.22-.08.44-.11.66-.05.37-.1.74-.15,1.1,0,.05,0,.12-.04.15-.16.2-.14.4-.05.61.07.15.1.3-.11.36,0,.53,0,1.05,0,1.56,0,.16,0,.35-.19.46-.07.04-.05.24-.09.36-.06-.22-.19-.4-.14-.67.05-.26-.04-.54-.04-.81,0-.47-.04-.96.27-1.37,0-.01.02-.03.02-.04-.14-.32.23-.44.26-.69.03-.27.11-.53.16-.8.05-.28.08-.56.12-.83,0-.02.02-.04.03-.06.02,0,.04,0,.06,0Z"/>
        <path d="m191.08,52.84c-.14.25-.28.49-.41.74-.05.09-.05.2-.04.32.28-.21.36-.53.53-.8-.05.18-.09.37-.17.54-.22.5-.44.99-.7,1.47-.26.5-.56.97-.85,1.45-.06.1-.16.17-.23.25-.17.2-.33.41-.54.59.16-.25.32-.51.49-.78-.06,0-.09-.01-.18-.02.1-.09.16-.17.24-.21.2-.08.31-.22.38-.43.08-.24.1-.47.09-.71,0-.06.04-.14.09-.19.15-.17.28-.33.34-.57.06-.22.23-.4.33-.62.05-.1.01-.25.07-.34.15-.25.33-.49.5-.73.02.01.04.02.06.03Z"/>
        <path d="m142.18,45.36c.23.18.29.42.29.64.02.61,0,1.21,0,1.84-.07,0-.12,0-.18-.01-.04.18-.07.35-.11.58-.06-.21-.1-.35-.15-.49-.01.02-.03.03-.07.09.09-.9-.11-1.78.21-2.65Z"/>
        <path d="m170.95.52c.07-.07.26.07.25-.15,0,0,.1-.02.15-.02.23.02.46.04.69.06,0-.03,0-.05.01-.08-.18-.02-.37-.05-.55-.07,0-.02,0-.04,0-.07.66-.06,1.31-.13,1.97-.19,0,.02,0,.04.01.07-.09.02-.18.04-.3.06.31.08.6.16.89.23,0,.03,0,.05,0,.08-.26,0-.52,0-.78,0-.18,0-.33.05-.45.19-.02.03-.1.02-.15.02-.36-.02-.72-.04-1.08-.05-.01,0-.02.02-.05.04.05.03.09.05.16.08-.31.07-.54-.02-.75-.2Z"/>
        <path d="m190.43,74.55c.08-.04.15-.08.21-.11,0,0,.02.02.03.03l-.08.12s.02.02.03.04c.08-.05.17-.1.24-.16.1-.09.18-.21.29-.29.86-.69,1.71-1.39,2.58-2.05.23-.17.53-.25.81-.36-.4.31-.84.56-1.08,1.05,0-.07,0-.15-.01-.24-.61.53-1.2,1.05-1.79,1.57-.02-.02-.04-.04-.07-.06.07-.09.14-.17.21-.26l-.02-.02c-.39.33-.77.65-1.16.98-.08-.1-.12-.15-.18-.23Z"/>
        <path d="m165.38,77.74s.1-.1.15-.1c.18,0,.36.02.53.05.15.03.3.09.45.14.04.01.08.04.11.03.51-.2,1.03-.02,1.55-.01.97.01,1.93.07,2.9.11.07,0,.13.02.2.03,0,.02,0,.05,0,.07-.27,0-.54,0-.8,0-.45,0-.9-.02-1.36-.03-.36,0-.72,0-1.08,0-.16,0-.32-.04-.48-.05-.38-.02-.77-.02-1.15-.04-.08,0-.17-.03-.24-.07-.15-.08-.27-.2-.46-.04-.05.04-.18-.01-.27-.03-.01-.02-.03-.03-.04-.05Z"/>
        <path d="m205.79,59.96s0,.08-.01.12c-.27.59-.53,1.18-.81,1.76-.2.4-.43.79-.65,1.18-.04.08-.14.12-.21.18-.09.09-.19.18-.31.29,0-.06,0-.15.03-.21.24-.44.48-.88.73-1.31.39-.68.79-1.35,1.18-2.03.02,0,.03,0,.05.01Z"/>
        <path d="m160.8,83.45c2.02.41,4.06.69,6.11.88-2.06-.12-4.12-.3-6.11-.88Z"/>
        <path d="m208.99,50.18c-.06.45-.03.92-.19,1.33-.16.4-.12.83-.27,1.22-.15.4-.3.8-.42,1.21-.08.25-.11.51-.19.76.2-1.55.72-3.01,1.07-4.52Z"/>
        <path d="m168.76,73.61c-.18,0-.37,0-.55,0-.16,0-.36.05-.49-.01-.16-.08-.29-.02-.43-.05-.06,0-.16-.13-.16-.13-.18.17-.38.01-.56.06-.26.07-.45-.09-.67-.16-.16-.04-.31-.11-.47-.14-.23-.04-.47-.06-.71-.09,0-.03,0-.05.01-.08,1.35.17,2.69.35,4.04.52,0,.02,0,.04,0,.06Z"/>
        <path d="m143.04,12.9s-.04.09-.06.14c.02.02.04.04.06.06.16-.22.32-.44.48-.66.04.04.08.07.12.11-.06.06-.12.12-.17.19-.09.12-.17.26-.27.37-.04.05-.11.08-.17.11-.24.13-.49.26-.74.39.01.02.02.04.03.06l.38-.23s.02.03.04.04c-.12.09-.24.24-.37.26-.23.04-.36.2-.51.33-.18.16-.36.32-.53.49-.01-.01-.03-.03-.04-.04l.39-.41s-.02-.02-.02-.04c-.08.02-.16.05-.24.07-.01-.02-.02-.05-.03-.07.08-.04.16-.11.25-.13.28-.07.53-.16.59-.5.02-.09.14-.16.23-.22.18-.13.38-.25.57-.37.01,0,.02.02.03.03Z"/>
        <path d="m142.54,43.5s-.05-.08-.09-.17c0,.28-.05.51-.34.68.03-.16.04-.26.07-.37.06-.2.12-.38.08-.62-.05-.27.09-.57.15-.87.06.04.09.05.14.08,0-.08.01-.15.02-.22.13.49.12.98-.02,1.48Z"/>
        <path d="m190.79,57.26c.12.28-.92,1.85-1.44,2.18.48-.73.96-1.45,1.44-2.18Z"/>
        <path d="m135.31,23.96s.09-.07.15-.12c.01.25-.45.41-.08.7-.08.1-.17.2-.28.33-.04-.18-.07-.32-.11-.5,0,0-.07-.01-.14-.03-.04.06-.07.12-.11.17h-.03c.04-.16.09-.32.11-.4.26-.19.48-.35.69-.5.02.02.03.04.05.06-.1.08-.21.16-.31.24.02.02.04.04.06.06Z"/>
        <path d="m196.85,69.31c.19-.21.37-.43.56-.64.02,0,.03.02.05.03-.02.04-.04.07-.06.11.31-.26.66-.48.7-.94,0-.06.09-.11.13-.17.03.04.06.08.09.13.09-.05.18-.11.28-.16.02.02.03.05.05.07-.1.06-.19.13-.29.17-.15.07-.13.06-.09.23.02.08-.05.24-.1.25-.34.06-.45.42-.74.55-.19.09-.35.27-.52.42l-.05-.05Z"/>
        <path d="m176.58,77.15s.08-.03.11-.03c.37.03.71-.11,1.06-.16-.02.18-.01.18-.16.21-.44.08-.88.16-1.33.23-.06.01-.13,0-.2-.05.21-.04.42-.08.64-.12,0-.01,0-.03,0-.04-.04-.01-.08-.03-.12-.04,0,0,0,0,0,0Z"/>
        <path d="m194.32,60.26s.01.1,0,.14c-.13.26-.2.6-.4.75-.33.25-.42.66-.78.86.39-.58.78-1.17,1.17-1.75h.02Z"/>
        <path d="m139.83,37.3c.18-.53.34-1.02.49-1.47v.12s.02,0,.03,0c.05-.14.11-.29.17-.46,0,.4-.38,1.41-.69,1.81Z"/>
        <path d="m184.77,79.99c-.73.29-1.46.57-2.19.86-.02-.04-.03-.08-.05-.12.74-.27,1.48-.53,2.22-.8,0,.02.01.04.02.06Z"/>
        <path d="m145.18,63.55c-.4-.17-.4-.62-.59-.95.36.22.6.51.59.95Z"/>
        <path d="m185.67,68.98c.61-.41,1.23-.82,1.84-1.23-.48.6-1.17.89-1.84,1.23Z"/>
        <path d="m177.75,65.62c.05-.06.1-.15.16-.18.2-.11.41-.2.63-.28.2-.08.41-.14.62-.21,0,.02.02.04.03.06-.13.07-.25.16-.39.22-.27.13-.54.25-.81.36-.07.03-.16.02-.24.03h0Z"/>
        <path d="m188.18,57.73c-.26.26-.52.52-.77.79-.07.07-.1.17-.16.25-.07.09-.15.17-.25.21.09-.13.18-.26.26-.4.07-.12.11-.25.28-.3.1-.03.15-.19.23-.28.11-.12.22-.23.33-.35.03.02.05.05.08.07Z"/>
        <path d="m148.6,9.03c-.14.06-.28.13-.43.19-.01-.02-.03-.04-.04-.06.06-.03.12-.06.21-.11-.1-.03-.15-.04-.23-.06.23-.15.42-.28.61-.42l.08.06c-.07.13-.14.26-.21.39,0,0,0,0,0,0Z"/>
        <path d="m208.12,40.64v2.2s-.03,0-.05,0v-2.2s.03,0,.05,0Z"/>
        <path d="m210.45,35.64c.35.75.33,1.53.45,2.29-.02,0-.04,0-.06.01-.05-.38-.09-.76-.16-1.14-.06-.38-.15-.75-.23-1.16Z"/>
        <path d="m139.12,18.82c-.03.14-.05.25-.07.36h.18c-.11.12-.22.23-.35.37,0-.06,0-.1-.01-.17-.07.03-.13.05-.2.08,0-.33.27-.44.45-.64Z"/>
        <path d="m161.4,2.99c-.31.04-.62.07-.92.13-.21.04-.42.12-.6.22-.16.09-.15-.11-.25-.08,0-.02,0-.05,0-.07.59-.1,1.17-.19,1.76-.29v.09Z"/>
        <path d="m195.93,66.17s.07-.04.1-.06c.02,0,.05,0,.07,0-.05.19-.64.87-.88.99.18-.26.15-.6.48-.71h0c-.06.1-.11.21-.17.31.03.02.06.03.09.05.11-.19.21-.39.32-.58Z"/>
        <path d="m154.48,26.63c.09.02.17.04.29.08-.21.24-.41.47-.62.7-.02-.01-.03-.03-.05-.04.13-.25.26-.5.38-.74Z"/>
        <path d="m152.9,69.24c.32.15.61.27.88.42.05.03.06.13.06.21-.3-.23-.72-.26-.95-.63Z"/>
        <path d="m149.77,7.42c.19-.33.69-.55.96-.43-.31.14-.61.27-.96.43Z"/>
        <path d="m145.06,59.94c-.12-.1-.23-.21-.35-.3-.15-.11-.33-.19-.46-.31-.11-.11-.18-.26-.23-.42.36.32.72.65,1.08.97-.01.02-.03.03-.04.05Z"/>
        <path d="m177.75,65.61s-.05.07-.09.07c-.31.05-.6.18-.89.31-.04.02-.11-.02-.17-.04,0-.03,0-.06,0-.08.35-.1.69-.19,1.04-.28.03,0,.07.02.11.03,0,0,0,0,0,0Z"/>
        <path d="m133.86,32.83c.13-.35.23-.64.34-.93.14.33.04.67-.34.93Z"/>
        <path d="m194.32,60.26h-.02c0-.06,0-.14.02-.18.16-.25.33-.49.51-.72-.05.18-.04.39-.27.49-.02.01-.03.09-.02.13.03.14-.09.3-.22.28Z"/>
        <path d="m195.69,57.52c-.02.12-.04.24-.06.35-.02,0-.04,0-.06,0-.02-.04-.03-.08-.07-.19-.14.28-.25.52-.37.77-.11-.42.25-.62.4-.92.01-.03.11-.01.17-.02h0Z"/>
        <path d="m133.5,30.74c-.21.53-.41,1.05-.62,1.58l-.09-.04c.21-.48.41-.96.62-1.44.02-.04.06-.06.09-.1h0Z"/>
        <path d="m202.32,56.6c-.02.11-.04.22-.07.33-.04.13-.1.26-.11.42.03-.03.07-.06.1-.09.01,0,.02.02.04.03-.07.1-.14.19-.21.29-.17-.41.01-.7.26-.97,0,0,0,0,0,0Z"/>
        <path d="m142.08,50.05c-.02-.25-.04-.49-.06-.75.12-.04.22-.05.21.12-.01.21-.03.42-.04.63-.04,0-.07,0-.11,0Z"/>
        <path d="m196.43,67.15c.27-.3.55-.59.82-.89.02.02.04.03.06.05-.26.31-.52.61-.79.92-.03-.03-.06-.05-.09-.08Z"/>
        <path d="m164.51,73.06c-.55-.12-1.1-.23-1.65-.35,0-.02,0-.05.01-.07.55.12,1.1.23,1.65.35,0,.03-.01.05-.02.08Z"/>
        <path d="m173.81,77.8c.06.04.1.07.13.09l-.02.06c-.11-.03-.23-.06-.34-.1,0-.04,0-.08,0-.11.28-.05.57-.09.87-.14q-.09.14-.64.2Z"/>
        <path d="m186.11,80.99c-.5.2-1,.4-1.5.6,0-.02-.02-.04-.03-.06.5-.2,1-.4,1.5-.6.01.02.02.04.03.06Z"/>
        <path d="m148.49,31.74c-.11.04-.21.08-.3.12-.02-.02-.03-.03-.05-.05.19-.27.38-.55.59-.85.02.31-.38.44-.24.78Z"/>
        <path d="m139.03,38.49c-.06.12-.12.24-.2.4-.19-.37.05-.61.18-.88-.02.15-.04.31-.07.46.03,0,.06.01.09.02Z"/>
        <path d="m206.56,32.02s.09.04.1.07c.09.36.17.72.26,1.08-.02,0-.04.01-.06.02-.12-.38-.23-.77-.35-1.15.02,0,.03-.02.05-.02Z"/>
        <path d="m207.28,34.7c.16.41.25.83.16,1.27-.05-.42-.11-.85-.16-1.27Z"/>
        <path d="m147.53,67.58c-.09-.17-.17-.35-.26-.52.02-.01.03-.02.05-.03.09.07.18.13.28.2.21.15.21.2-.06.35Z"/>
        <path d="m149.34,27.2c-.21.24-.41.48-.62.73-.02-.02-.04-.03-.06-.05.09-.34.42-.47.67-.68Z"/>
        <path d="m149.95,28.45c.33-.37.66-.74.99-1.11.02.01.03.03.05.04-.33.37-.66.74-.99,1.12-.02-.02-.03-.03-.05-.05Z"/>
        <path d="m207.66,37.33c-.05-.37-.11-.74-.16-1.1.03,0,.07,0,.1-.01l.14,1.11s-.05,0-.08.01Z"/>
        <path d="m194.63,45.82c-.04.22-.08.44-.12.67-.01.06,0,.13,0,.2.01.06.04.11.06.16-.05,0-.11,0-.17.01-.13-.38.21-.68.1-1.06l.11.02Z"/>
        <path d="m187.81,67.6c.13-.23.23-.42.32-.58.1.02.19.04.31.07-.2.16-.4.32-.63.51Z"/>
        <path d="m131.24,34.74c.22-.19,0-.56.31-.73.05.27-.11.66-.31.73Z"/>
        <path d="m198.31,73.67c-.3.25-.61.5-.91.75-.01-.02-.03-.03-.04-.05.3-.26.59-.51.89-.77.02.02.04.05.07.07Z"/>
        <path d="m146.97,32.64c.08-.15.17-.31.26-.45.01-.02.08,0,.12,0-.03.39-.14.51-.38.45Z"/>
        <path d="m163.01,21.1c-.23.07-.47.14-.7.21.02-.23.47-.37.7-.21Z"/>
        <path d="m194.42,47.26c0,.06.01.12.02.2.08-.25.16-.49.23-.72l.08.03c-.11.33-.23.65-.34.98-.03,0-.05-.01-.08-.02.02-.16.03-.31.05-.47.01,0,.03,0,.04,0Z"/>
        <path d="m183.66,75.67c-.06.04-.14.06-.19.12-.12.12-.33.15-.36.38,0,.04-.19.07-.29.1l-.04-.05c.27-.2.53-.41.8-.61l.07.07Z"/>
        <path d="m192.04,55.27c.12-.26.25-.52.37-.77.03.02.06.03.09.05-.15.25-.16.57-.47.72h0Z"/>
        <path d="m142.01,48.17c.08.32.26.59-.05.89-.01-.11-.02-.19-.03-.27h.14c0-.06,0-.15-.03-.19-.12-.13-.1-.24-.03-.42Z"/>
        <path d="m167.82,20.31s-.02-.03-.06-.11c.07.04.14.06.14.08,0,.05-.02.13-.05.14-.27.04-.54.07-.82.1,0-.02,0-.05-.01-.07.26-.05.52-.09.79-.14Z"/>
        <path d="m163.83,20.87c-.17.09-.34.17-.57.28.01-.09,0-.18.03-.2.21-.16.43-.19.53-.08Z"/>
        <path d="m142.87,15.09c.05-.07.08-.12.12-.17-.05-.02-.1-.03-.17-.06.09-.07.16-.12.23-.18.06.08.11.14.17.2q-.19.24-.34.21Z"/>
        <path d="m193.69,9.44c.3.19.59.38.89.57l-.06.09-.84-.65h.01Z"/>
        <path d="m148.22,66.35c-.33-.18-.52-.5-.74-.78.26.24.52.49.78.73-.01.02-.03.03-.04.05Z"/>
        <path d="m161.74,3.17l1.03-.19s0,.04.01.06c-.18.04-.36.08-.54.12-.17.04-.33.08-.5.11,0-.03,0-.07,0-.1Z"/>
        <path d="m192.92,53.21c-.08.29-.15.53-.23.82-.13-.2-.04-.48.23-.82Z"/>
        <path d="m193.67,9.45c-.21,0-.3-.18-.42-.31-.07-.07-.15-.13-.22-.21.23.15.55.18.65.5h-.01Z"/>
        <path d="m155.81,75.05c.29.1.57.2.86.3,0,.02-.02.05-.02.07-.32.01-.56-.24-.86-.32,0-.02.01-.04.02-.06Z"/>
        <path d="m193.06,48.83c.03-.37.05-.74.08-1.1.03,0,.05,0,.08,0-.02.37-.04.74-.06,1.11-.03,0-.07,0-.1-.01Z"/>
        <path d="m160.5,75.13c-.37-.1-.75-.2-1.12-.3,0-.02.01-.05.02-.07.37.1.74.21,1.12.31,0,.02-.01.04-.02.06Z"/>
        <path d="m134.98,16.97c0,.29-.18.27-.38.23-.04-.34.27-.12.38-.23Z"/>
        <path d="m139.49,18.11c.11-.15.21-.29.31-.42.06.41,0,.48-.31.42Z"/>
        <path d="m141.17,31.1c-.11.26-.22.51-.33.77-.03-.01-.06-.02-.08-.04.12-.26.23-.51.35-.77.02.01.05.02.07.03Z"/>
        <path d="m140.77,15.52c0,.09.02.24-.03.26-.09.05-.22.04-.33.05.1-.12.19-.21.28-.31h.08Z"/>
        <path d="m139.72,58.18c-.16-.39-.31-.79-.47-1.18.02,0,.04-.01.06-.02.16.39.31.79.47,1.18-.02,0-.04.02-.06.02Z"/>
        <path d="m155.55,6.58c.1-.13.18-.24.39-.21.14.02.31-.1.46-.16,0,.02.02.05.03.07-.29.1-.58.2-.88.3Z"/>
        <path d="m152.27,71.33c.27.17.55.34.82.51-.01.02-.03.04-.04.07-.28-.17-.56-.34-.84-.51.02-.02.03-.04.05-.07Z"/>
        <path d="m196.41,66.15c-.1.43-.51.56-.75.85.24-.27.49-.55.75-.85Z"/>
        <path d="m187.74,66.01s.05,0,.08,0c-.21.22-.33.53-.65.65.19-.22.38-.44.57-.66Z"/>
        <path d="m133.5,30.74c.08-.09.16-.19.24-.28l.04.03c-.08.26-.17.52-.25.79-.02,0-.04-.01-.06-.02.03-.09.08-.17.08-.26,0-.09-.04-.17-.06-.26h0Z"/>
        <path d="m162.63,75.67c-.35-.08-.69-.17-1.04-.25l.02-.06c.34.08.69.17,1.03.25,0,.02,0,.04-.01.06Z"/>
        <path d="m199.19,64.69c-.1.22-.18.4-.26.58-.07-.25-.03-.45.26-.58Z"/>
        <path d="m200.1,64.97c-.15.26-.3.52-.45.78l-.06-.03c.14-.26.28-.53.43-.79.03.01.05.03.08.04Z"/>
        <path d="m207.67,52.33v-.69s.04,0,.06,0c.01.23.03.46.04.68h-.11Z"/>
        <path d="m195.69,57.53l.26-.9s.03,0,.05.01c0,.06.01.12,0,.17-.05.18-.11.37-.18.55-.02.06-.09.11-.14.16h0Z"/>
        <path d="m177.79,73.51c-.3.1-.6.21-.89.31,0-.02-.02-.05-.02-.07.3-.1.6-.2.9-.31,0,.02.02.05.02.07Z"/>
        <path d="m210.62,28.08c-.06-.18-.12-.37-.19-.56.21.1.3.3.19.56Z"/>
        <path d="m183.45,24.69s.03.03.05.05c.09.14.19.27.28.41-.01.01-.03.02-.04.03-.15-.17-.3-.33-.45-.5.01-.01.02-.02.03-.04.04.01.08.02.12.03Z"/>
        <path d="m140.39,57.63c-.13-.25-.27-.49-.4-.74.02,0,.03-.02.05-.03l.42.72s-.05.03-.07.05Z"/>
        <path d="m155.94,70.98c.21.09.42.18.63.26-.01.03-.02.06-.04.09-.21-.09-.42-.18-.62-.27.01-.03.02-.05.03-.08Z"/>
        <path d="m147.06,64.24l-.57-.57s.07-.07.1-.1c.17.21.35.41.52.62-.02.02-.03.03-.05.05Z"/>
        <path d="m202.26,55.42c.06-.12.13-.24.2-.38.2.23-.11.36-.11.54-.03-.06-.06-.12-.09-.17,0,0,0,0,0,0Z"/>
        <path d="m134.44,51.84c-.02-.16-.04-.33-.06-.49h.08c.13.13.08.31.05.48-.02,0-.05,0-.07.01Z"/>
        <path d="m198.52,63.43l-.45.66s-.04-.03-.06-.04c.15-.22.31-.44.46-.67.02.02.04.03.06.05Z"/>
        <path d="m141.37,15.25c0,.16.03.34-.29.3.09-.13.16-.24.23-.34.02.01.04.03.06.04Z"/>
        <path d="m163.7,21.08c.24-.07.48-.14.72-.2,0,.03.01.05.02.08l-.72.19s-.02-.04-.02-.06Z"/>
        <path d="m146.38,12.11c.22-.15.44-.3.66-.45.01.02.02.03.03.05-.22.16-.43.32-.65.48-.02-.02-.03-.05-.05-.07Z"/>
        <path d="m131.64,33.68c.07-.17.14-.34.22-.51.03.01.05.02.08.03-.07.17-.13.34-.2.51-.03-.01-.06-.02-.1-.04Z"/>
        <path d="m197.48,64.94c-.18.23-.35.47-.53.7-.02-.01-.03-.02-.05-.04l.53-.71s.03.03.05.05Z"/>
        <path d="m175.99,73.98c.2-.06.41-.12.61-.17,0,.02.01.04.02.07-.2.07-.4.13-.6.2,0-.03-.02-.06-.03-.09Z"/>
        <path d="m133.32,39.65l-.17.88s-.04,0-.06-.01c.06-.29.12-.59.17-.88.02,0,.03,0,.05,0Z"/>
        <path d="m192.03,55.27c-.08.19-.16.38-.24.57-.02,0-.04,0-.06,0,.01-.06.02-.13.03-.19.02-.08.04-.16.08-.22.05-.06.13-.1.19-.15,0,0,0,0,0,0Z"/>
        <path d="m144.8,57.03c.15.18.29.37.44.55-.02.02-.04.03-.06.05-.14-.19-.29-.37-.43-.56.02-.01.04-.03.06-.04Z"/>
        <path d="m139.96,52.36v-.54c.26.19.06.37.07.54-.02,0-.05,0-.07,0Z"/>
        <path d="m175.43,77.54c-.25.05-.51.1-.76.15,0-.03,0-.06-.01-.09l.77-.12s0,.04,0,.06Z"/>
        <path d="m196.19,57.23c-.07.23-.14.45-.21.68-.03,0-.05-.02-.08-.02.08-.23.15-.45.23-.68.02,0,.04.01.06.02Z"/>
        <path d="m162.99,2.9c.16-.12.31-.23.49-.19,0,.03.01.07.02.1-.17.03-.34.06-.51.09Z"/>
        <path d="m141.89,45.48c.02.24.03.47.05.71-.03,0-.06,0-.09,0v-.71s.03,0,.04,0Z"/>
        <path d="m133.22,33.42c0,.1,0,.21,0,.31,0,.04-.06.07-.09.1-.03-.05-.08-.1-.07-.14.02-.1.07-.2.11-.29.02,0,.04,0,.05.01Z"/>
        <path d="m144.61,65.07c.18.22.36.43.54.65-.02.01-.03.03-.05.04-.18-.22-.36-.43-.54-.65.02-.01.03-.03.05-.04Z"/>
        <path d="m149.78,69.53c-.22-.19-.44-.38-.66-.58.01-.01.02-.03.03-.04.22.19.44.38.67.57l-.05.05Z"/>
        <path d="m143.57,33.28c-.06.16-.12.32-.19.47-.03-.01-.07-.03-.1-.04.06-.16.13-.31.19-.47.03.01.06.02.1.03Z"/>
        <path d="m201.92,56.57c0-.08.01-.16.02-.24.02,0,.03,0,.05,0,.02.03.04.07.06.1.05-.07.1-.14.15-.22.02.02.04.03.07.05-.09.12-.17.24-.26.37-.03-.02-.06-.03-.08-.05Z"/>
        <path d="m172.52.96c-.15-.07-.3-.13-.45-.2.01-.03.02-.05.03-.08.15.06.3.12.45.18-.01.03-.02.06-.03.1Z"/>
        <path d="m169.1,20.07c-.08.1-.33-.02-.25.23,0,0-.06.03-.09.05-.01-.04-.05-.08-.04-.11.07-.16.19-.23.39-.17Z"/>
        <path d="m191.58,56.07c-.07.17-.14.34-.21.52-.03-.01-.06-.02-.09-.04.08-.17.15-.34.23-.51.02.01.05.02.07.03Z"/>
        <path d="m170.57.81c.18.02.36-.07.54,0,0,.03,0,.07,0,.1-.18-.01-.36-.03-.53-.04,0-.02,0-.04,0-.06Z"/>
        <path d="m140.46,31.88c.11-.17.19-.3.3-.48-.02.24-.02.41-.3.48Z"/>
        <path d="m199.02,72.98c-.18.17-.36.33-.54.5-.02-.02-.03-.03-.05-.05.18-.16.36-.33.55-.49.01.01.03.03.04.04Z"/>
        <path d="m140.49,57.48c-.1-.22-.19-.44-.29-.66.02,0,.03-.02.05-.02.1.21.2.43.3.64-.02.01-.04.03-.06.04Z"/>
        <path d="m194.36,45.76c-.01.19-.02.37-.03.56h-.04v-.56s.05,0,.08,0Z"/>
        <path d="m155.75,23c.1-.05.2-.09.3-.14-.01.12-.4.43-.67.51.12-.12.24-.25.37-.37Z"/>
        <path d="m204.56,53.74c-.07.3-.13.6-.2.9-.02,0-.04,0-.06-.01l.18-.9s.05.01.07.02Z"/>
        <path d="m204.85,53.4c.03.2-.15.3-.24.47-.02-.23,0-.41.25-.47,0,0,0,0,0,0Z"/>
        <path d="m205.05,35.48c.1.37.2.72.3,1.08-.2-.02-.4-.73-.3-1.08Z"/>
      </g>
    </g>
  </g>
</svg>